<?xml version="1.0" encoding="utf-8"?>
<!-- Generator: Adobe Illustrator 16.0.0, SVG Export Plug-In . SVG Version: 6.00 Build 0)  -->
<!DOCTYPE svg PUBLIC "-//W3C//DTD SVG 1.1//EN" "http://www.w3.org/Graphics/SVG/1.1/DTD/svg11.dtd">
<svg version="1.1" id="Layer_1" xmlns="http://www.w3.org/2000/svg" xmlns:xlink="http://www.w3.org/1999/xlink" x="0px" y="0px"
	 width="1400px" height="980px" viewBox="0 0 1400 980" enable-background="new 0 0 1400 980" xml:space="preserve">
<g>
	<g>
		<g>
			<rect fill="#FFFFFF" width="1400" height="980"/>
		</g>
	</g>
	<g>
		<g>
			<path fill="#808285" d="M1284.5,580.6c0,32.2-26.1,58.4-58.4,58.4h-19.4c-32.2,0-58.4-26.1-58.4-58.4V458.8
				c0-32.2,26.1-58.4,58.4-58.4h19.4c32.2,0,58.4,26.1,58.4,58.4V580.6z"/>
			<path d="M1226.1,641.9h-19.4c-33.8,0-61.3-27.5-61.3-61.3V458.8c0-33.8,27.5-61.3,61.3-61.3h19.4c33.8,0,61.3,27.5,61.3,61.3
				v121.7C1287.4,614.4,1259.9,641.9,1226.1,641.9z M1206.7,403.4c-30.6,0-55.4,24.9-55.4,55.4v121.7c0,30.5,24.9,55.4,55.4,55.4
				h19.4c30.6,0,55.4-24.9,55.4-55.4V458.8c0-30.6-24.9-55.4-55.4-55.4H1206.7z"/>
		</g>
		<g>
			<path d="M1226.1,666.2h-19.4c-47.2,0-85.6-38.4-85.6-85.6c0-1.6,1.3-3,3-3c1.6,0,3,1.3,3,3c0,44,35.8,79.7,79.7,79.7h19.4
				c44,0,79.7-35.8,79.7-79.7c0-1.6,1.3-3,3-3c1.6,0,3,1.3,3,3C1311.7,627.8,1273.3,666.2,1226.1,666.2z"/>
		</g>
		<g>
			<line fill="#FFFFFF" x1="1216.4" y1="663.3" x2="1216.4" y2="705.4"/>
			<path d="M1216.4,708.4c-1.6,0-3-1.3-3-3v-42.2c0-1.6,1.3-3,3-3c1.6,0,3,1.3,3,3v42.2C1219.3,707,1218,708.4,1216.4,708.4z"/>
		</g>
		<g>
			<rect x="1155.6" y="705.4" fill="#FFFFFF" width="121.6" height="25.9"/>
			<path d="M1277.2,734.3h-121.6c-1.6,0-3-1.3-3-3v-25.9c0-1.6,1.3-3,3-3h121.6c1.6,0,3,1.3,3,3v25.9
				C1280.1,733,1278.8,734.3,1277.2,734.3z M1158.6,728.4h115.7v-20h-115.7V728.4z"/>
		</g>
		<g>
			<line fill="#FFFFFF" x1="1148.3" y1="478.4" x2="1193.7" y2="478.4"/>
			<path d="M1193.7,481.3h-45.4c-1.6,0-3-1.3-3-3c0-1.6,1.3-3,3-3h45.4c1.6,0,3,1.3,3,3C1196.6,480,1195.3,481.3,1193.7,481.3z"/>
		</g>
		<g>
			<line fill="#FFFFFF" x1="1148.3" y1="519.7" x2="1193.7" y2="519.7"/>
			<path d="M1193.7,522.7h-45.4c-1.6,0-3-1.3-3-3c0-1.6,1.3-3,3-3h45.4c1.6,0,3,1.3,3,3C1196.6,521.3,1195.3,522.7,1193.7,522.7z"/>
		</g>
		<g>
			<line fill="#FFFFFF" x1="1148.3" y1="561" x2="1193.7" y2="561"/>
			<path d="M1193.7,564h-45.4c-1.6,0-3-1.3-3-3c0-1.6,1.3-3,3-3h45.4c1.6,0,3,1.3,3,3C1196.6,562.7,1195.3,564,1193.7,564z"/>
		</g>
		<g>
			<line fill="#FFFFFF" x1="1239.1" y1="478.4" x2="1284.5" y2="478.4"/>
			<path d="M1284.5,481.3h-45.4c-1.6,0-3-1.3-3-3c0-1.6,1.3-3,3-3h45.4c1.6,0,3,1.3,3,3C1287.4,480,1286.1,481.3,1284.5,481.3z"/>
		</g>
		<g>
			<line fill="#FFFFFF" x1="1239.1" y1="519.7" x2="1284.5" y2="519.7"/>
			<path d="M1284.5,522.7h-45.4c-1.6,0-3-1.3-3-3c0-1.6,1.3-3,3-3h45.4c1.6,0,3,1.3,3,3C1287.4,521.3,1286.1,522.7,1284.5,522.7z"/>
		</g>
		<g>
			<line fill="#FFFFFF" x1="1239.1" y1="561" x2="1284.5" y2="561"/>
			<path d="M1284.5,564h-45.4c-1.6,0-3-1.3-3-3c0-1.6,1.3-3,3-3h45.4c1.6,0,3,1.3,3,3C1287.4,562.7,1286.1,564,1284.5,564z"/>
		</g>
	</g>
	<g>
		<g>
			<path fill="#808285" d="M850.7,198.4c0-22.8-18.5-41.3-41.3-41.3H525.2c-22.8,0-41.3,18.5-41.3,41.3V226h366.7V198.4z"/>
			<path d="M850.7,229H484c-1.6,0-3-1.3-3-3v-27.6c0-24.4,19.8-44.2,44.2-44.2h284.2c24.4,0,44.2,19.8,44.2,44.2V226
				C853.6,227.6,852.3,229,850.7,229z M486.9,223.1h360.8v-24.7c0-21.1-17.2-38.3-38.3-38.3H525.2c-21.1,0-38.3,17.2-38.3,38.3
				V223.1z"/>
		</g>
		<g>
			<path fill="#808285" d="M484,798.8c0,22.8,18.5,41.3,41.3,41.3h284.2c22.8,0,41.3-18.5,41.3-41.3v-41.7H484V798.8z"/>
			<path d="M809.4,843H525.2c-24.4,0-44.2-19.8-44.2-44.2v-41.7c0-1.6,1.3-3,3-3h366.7c1.6,0,3,1.3,3,3v41.7
				C853.6,823.2,833.8,843,809.4,843z M486.9,760.1v38.7c0,21.1,17.2,38.3,38.3,38.3h284.2c21.1,0,38.3-17.2,38.3-38.3v-38.7H486.9z
				"/>
		</g>
		<g>
			<rect x="484" y="226" fill="#50BCDB" width="366.7" height="531.1"/>
			<path d="M850.7,760.1H484c-1.6,0-3-1.3-3-3V226c0-1.6,1.3-3,3-3h366.7c1.6,0,3,1.3,3,3v531.1
				C853.6,758.8,852.3,760.1,850.7,760.1z M486.9,754.2h360.8V229H486.9V754.2z"/>
		</g>
	</g>
	<g>
		<path fill="#FFFFFF" d="M691.4,798.6c0,13.3-10.8,24.1-24.1,24.1c-13.3,0-24.1-10.8-24.1-24.1c0-13.3,10.8-24.1,24.1-24.1
			C680.6,774.5,691.4,785.3,691.4,798.6z"/>
		<path d="M667.3,825.6c-14.9,0-27-12.1-27-27s12.1-27,27-27c14.9,0,27,12.1,27,27S682.2,825.6,667.3,825.6z M667.3,777.5
			c-11.6,0-21.1,9.5-21.1,21.1s9.5,21.1,21.1,21.1c11.6,0,21.1-9.5,21.1-21.1S679,777.5,667.3,777.5z"/>
	</g>
	<g>
		<path d="M725.2,194.5H609.5c-1.6,0-3-1.3-3-3c0-1.6,1.3-3,3-3h115.8c1.6,0,3,1.3,3,3C728.2,193.2,726.8,194.5,725.2,194.5z"/>
	</g>
	<g>
		<rect x="527.4" y="272.9" fill="#FFBCBB" width="279.9" height="62.1"/>
		<path d="M807.3,338H527.4c-1.6,0-3-1.3-3-3v-62.1c0-1.6,1.3-3,3-3h279.9c1.6,0,3,1.3,3,3V335C810.2,336.7,808.9,338,807.3,338z
			 M530.4,332.1h274v-56.2h-274V332.1z"/>
	</g>
	<g>
		<rect x="527.4" y="547.6" fill="#FFBCBB" width="279.9" height="62.1"/>
		<path d="M807.3,612.7H527.4c-1.6,0-3-1.3-3-3v-62.1c0-1.6,1.3-3,3-3h279.9c1.6,0,3,1.3,3,3v62.1
			C810.2,611.3,808.9,612.7,807.3,612.7z M530.4,606.7h274v-56.2h-274V606.7z"/>
	</g>
	<g>
		<rect x="527.4" y="648.1" fill="#FFBCBB" width="279.9" height="62.1"/>
		<path d="M807.3,713.2H527.4c-1.6,0-3-1.3-3-3v-62.1c0-1.6,1.3-3,3-3h279.9c1.6,0,3,1.3,3,3v62.1
			C810.2,711.8,808.9,713.2,807.3,713.2z M530.4,707.3h274v-56.2h-274V707.3z"/>
	</g>
	<g>
		<rect x="527.4" y="373.2" fill="#A4E0FF" width="279.9" height="133.3"/>
		<path d="M807.3,509.5H527.4c-1.6,0-3-1.3-3-3V373.2c0-1.6,1.3-3,3-3h279.9c1.6,0,3,1.3,3,3v133.3
			C810.2,508.1,808.9,509.5,807.3,509.5z M530.4,503.5h274V376.1h-274V503.5z"/>
	</g>
	<g>
		<g>
			<polygon fill="#F1F2F2" points="1034.9,252.2 1032,342.9 1075.4,301.9 1034.9,252.2 			"/>
			<path d="M1032,345.9c-0.4,0-0.8-0.1-1.2-0.3c-1.1-0.5-1.8-1.6-1.7-2.8l3-90.7c0-1.2,0.8-2.3,2-2.7c1.2-0.4,2.5,0,3.2,0.9
				l40.5,49.7c1,1.2,0.9,3-0.3,4l-43.5,41C1033.4,345.6,1032.7,345.9,1032,345.9z M1037.6,260.2l-2.5,75.6l36.2-34.2L1037.6,260.2z"
				/>
		</g>
		<g>
			<path d="M1034.9,255.2c-0.9,0-1.7-0.4-2.3-1.1l-93.8-115.2c-0.7-0.8-0.9-2-0.5-3c0.4-1,1.3-1.7,2.4-1.8l355.5-43.8
				c1.4-0.1,2.7,0.6,3.2,2c0.5,1.3-0.1,2.8-1.3,3.5l-261.7,159.1C1036,255,1035.5,255.2,1034.9,255.2z M946.8,139.3l88.8,109.1
				l247.7-150.6L946.8,139.3z"/>
		</g>
		<g>
			<polygon fill="#F1F2F2" points="1034.9,252.2 1075.4,301.9 1133.5,373.2 1296.6,93.1 			"/>
			<path d="M1133.5,376.1c-0.9,0-1.7-0.4-2.3-1.1l-98.5-121c-0.5-0.7-0.8-1.5-0.6-2.4c0.1-0.8,0.6-1.6,1.4-2l261.7-159.1
				c1.1-0.7,2.6-0.5,3.6,0.4c1,0.9,1.2,2.4,0.5,3.6l-163.2,280c-0.5,0.8-1.4,1.4-2.3,1.5C1133.6,376.1,1133.5,376.1,1133.5,376.1z
				 M1039.4,253l93.7,115l155.1-266.3L1039.4,253z"/>
		</g>
	</g>
	<g>
		<g>
			<path fill="#A4E0FF" d="M264.7,250.2l52.2-34.4l82.4,59.6V133.3c0-13.5-11-24.5-24.5-24.5H120.2c-13.6,0-24.5,11-24.5,24.5v131.4
				l100.2-71.5L264.7,250.2z"/>
			<path d="M399.3,278.3c-0.6,0-1.2-0.2-1.7-0.6l-80.7-58.4l-50.5,33.3c-1.1,0.7-2.5,0.6-3.5-0.2L195.7,197l-98.3,70.2
				c-0.9,0.6-2.1,0.7-3.1,0.2s-1.6-1.5-1.6-2.6V133.3c0-15.2,12.3-27.5,27.5-27.5h254.5c15.2,0,27.5,12.3,27.5,27.5v142.1
				c0,1.1-0.6,2.1-1.6,2.6C400.2,278.2,399.7,278.3,399.3,278.3z M316.9,212.8c0.6,0,1.2,0.2,1.7,0.6l77.7,56.2V133.3
				c0-11.9-9.7-21.6-21.6-21.6H120.2c-11.9,0-21.6,9.7-21.6,21.6V259l95.5-68.2c1.1-0.8,2.6-0.7,3.6,0.1l67.2,55.6l50.4-33.2
				C315.8,213,316.4,212.8,316.9,212.8z"/>
		</g>
		<g>
			<path fill="#808285" d="M316.9,215.8l-52.2,34.4l-68.8-57L95.7,264.8v53.9c0,13.6,11,24.5,24.5,24.5h254.5
				c13.5,0,24.5-11,24.5-24.5v-43.3L316.9,215.8z"/>
			<path d="M374.8,346.2H120.2c-15.2,0-27.5-12.3-27.5-27.5v-53.9c0-1,0.5-1.9,1.2-2.4l100.2-71.5c1.1-0.8,2.6-0.7,3.6,0.1
				l67.2,55.6l50.4-33.2c1-0.7,2.4-0.6,3.4,0.1L401,273c0.8,0.6,1.2,1.4,1.2,2.4v43.3C402.2,333.8,389.9,346.2,374.8,346.2z
				 M98.7,266.3v52.4c0,11.9,9.7,21.6,21.6,21.6h254.5c11.9,0,21.6-9.7,21.6-21.6v-41.8l-79.5-57.5l-50.5,33.3
				c-1.1,0.7-2.5,0.6-3.5-0.2L195.7,197L98.7,266.3z"/>
		</g>
	</g>
	<g>
		<circle fill="#FCFFD1" cx="289.6" cy="168.8" r="24.4"/>
		<path d="M289.6,196.2c-15.1,0-27.3-12.3-27.3-27.3c0-15.1,12.3-27.3,27.3-27.3s27.3,12.3,27.3,27.3
			C316.9,183.9,304.7,196.2,289.6,196.2z M289.6,147.4c-11.8,0-21.4,9.6-21.4,21.4c0,11.8,9.6,21.4,21.4,21.4s21.4-9.6,21.4-21.4
			C311,157,301.4,147.4,289.6,147.4z"/>
	</g>
	<g>
		<g>
			<path fill="#FFFFFF" d="M1295,854.2v-2.4V691.6v-60.3c0-13.7-11.1-24.8-24.8-24.8H960c-13.7,0-24.8,11.1-24.8,24.8v220.5
				c0,13.7,11.1,24.8,24.8,24.8h160.6h149.5h47.2C1305,876.6,1295,866.6,1295,854.2z"/>
			<path d="M1317.3,879.6H960c-15.3,0-27.8-12.5-27.8-27.8V631.3c0-15.3,12.5-27.8,27.8-27.8h310.1c15.3,0,27.8,12.5,27.8,27.8v223
				c0,10.7,8.7,19.4,19.4,19.4c1.6,0,3,1.3,3,3C1320.3,878.2,1319,879.6,1317.3,879.6z M960,609.4c-12.1,0-21.9,9.8-21.9,21.8v220.5
				c0,12,9.8,21.9,21.9,21.9h341.1c-5.6-4.7-9.1-11.6-9.1-19.4v-223c0-12.1-9.8-21.8-21.9-21.8H960z"/>
		</g>
		<g>
			<path d="M1317.3,879.6c-14,0-25.3-11.4-25.3-25.4v-2.4c0-1.6,1.3-3,3-3c1.6,0,3,1.3,3,3v2.4c0,10.7,8.7,19.4,19.4,19.4
				c10.7,0,19.4-8.7,19.4-19.4V691.6c0-1.6,1.3-3,3-3c1.6,0,3,1.3,3,3v162.6C1342.7,868.2,1331.3,879.6,1317.3,879.6z"/>
		</g>
		<g>
			<rect x="935.2" y="725" fill="#FFBCBB" width="163.3" height="101.3"/>
			<path d="M1098.5,829.2H935.2c-1.6,0-3-1.3-3-3V725c0-1.6,1.3-3,3-3h163.3c1.6,0,3,1.3,3,3v101.3
				C1101.5,827.9,1100.2,829.2,1098.5,829.2z M938.2,823.3h157.4v-95.4H938.2V823.3z"/>
		</g>
		<g>
			<rect x="1130.2" y="758.8" fill="#50BCDB" width="86.2" height="67.5"/>
			<path d="M1216.4,829.2h-86.2c-1.6,0-3-1.3-3-3v-67.5c0-1.6,1.3-3,3-3h86.2c1.6,0,3,1.3,3,3v67.5
				C1219.3,827.9,1218,829.2,1216.4,829.2z M1133.2,823.3h80.2v-61.6h-80.2V823.3z"/>
		</g>
		<g>
			<line fill="#FFFFFF" x1="1130.2" y1="725" x2="1263.2" y2="725"/>
			<path d="M1263.2,727.9h-133c-1.6,0-3-1.3-3-3c0-1.6,1.3-3,3-3h133c1.6,0,3,1.3,3,3C1266.2,726.6,1264.9,727.9,1263.2,727.9z"/>
		</g>
		<g>
			<line fill="#FFFFFF" x1="1263.2" y1="689.8" x2="974.5" y2="689.8"/>
			<path d="M1263.2,692.8H974.5c-1.6,0-3-1.3-3-3c0-1.6,1.3-3,3-3h288.8c1.6,0,3,1.3,3,3C1266.2,691.5,1264.9,692.8,1263.2,692.8z"
				/>
		</g>
		<g>
			<line fill="#FFFFFF" x1="974.5" y1="657.4" x2="1182.6" y2="657.4"/>
			<path d="M1182.6,660.4H974.5c-1.6,0-3-1.3-3-3s1.3-3,3-3h208.1c1.6,0,3,1.3,3,3S1184.2,660.4,1182.6,660.4z"/>
		</g>
	</g>
	<g>
		<g>
			<path fill="#FCFFD1" d="M841.7,285.7c-108.7,0-196.8,88.1-196.8,196.8c0,51.1,19.5,97.6,51.4,132.6l-19,79.1l74.5-36.7
				c27,13.9,57.5,21.8,89.9,21.8c108.7,0,196.8-88.1,196.8-196.8C1038.5,373.8,950.3,285.7,841.7,285.7z"/>
			<path d="M677.2,697.2c-0.7,0-1.3-0.2-1.8-0.6c-0.9-0.7-1.3-1.9-1-3L693,616c-33-36.7-51.1-84-51.1-133.4
				c0-110.2,89.6-199.8,199.8-199.8s199.8,89.6,199.8,199.8c0,110.2-89.6,199.8-199.8,199.8c-31.6,0-61.8-7.2-89.9-21.4l-73.2,36
				C678.1,697.1,677.7,697.2,677.2,697.2z M841.7,288.7c-106.9,0-193.9,87-193.9,193.9c0,48.4,18,94.8,50.6,130.6
				c0.7,0.7,0.9,1.7,0.7,2.7l-17.5,73l68.9-33.9c0.8-0.4,1.8-0.4,2.7,0c27.6,14.2,57.4,21.4,88.6,21.4c106.9,0,193.9-87,193.9-193.9
				C1035.5,375.7,948.5,288.7,841.7,288.7z"/>
		</g>
		<g>
			<path fill="#808285" d="M788.9,439.8c0,11.2-9.1,20.2-20.2,20.2s-20.2-9.1-20.2-20.2c0-11.2,9.1-20.3,20.2-20.3
				S788.9,428.6,788.9,439.8z"/>
			<path d="M768.7,463c-12.8,0-23.2-10.4-23.2-23.2c0-12.8,10.4-23.2,23.2-23.2s23.2,10.4,23.2,23.2
				C791.9,452.6,781.4,463,768.7,463z M768.7,422.5c-9.5,0-17.3,7.8-17.3,17.3c0,9.5,7.8,17.3,17.3,17.3c9.5,0,17.3-7.8,17.3-17.3
				C785.9,430.3,778.2,422.5,768.7,422.5z"/>
		</g>
		<g>
			<path fill="#808285" d="M934.9,439.8c0,11.2-9.1,20.2-20.2,20.2s-20.2-9.1-20.2-20.2c0-11.2,9.1-20.3,20.2-20.3
				S934.9,428.6,934.9,439.8z"/>
			<path d="M914.7,463c-12.8,0-23.2-10.4-23.2-23.2c0-12.8,10.4-23.2,23.2-23.2c12.8,0,23.2,10.4,23.2,23.2
				C937.9,452.6,927.5,463,914.7,463z M914.7,422.5c-9.5,0-17.3,7.8-17.3,17.3c0,9.5,7.8,17.3,17.3,17.3c9.5,0,17.3-7.8,17.3-17.3
				C931.9,430.3,924.2,422.5,914.7,422.5z"/>
		</g>
		<g>
			<path d="M840.5,603.3c-30.9,0-61.9-11.8-85.5-35.3c-1.2-1.2-1.2-3,0-4.2c1.2-1.2,3-1.2,4.2,0c44.8,44.8,117.7,44.8,162.5,0
				c1.2-1.2,3-1.2,4.2,0c1.2,1.2,1.2,3,0,4.2C902.4,591.6,871.5,603.3,840.5,603.3z"/>
		</g>
	</g>
	<g>
		<path d="M247.5,915.3c-85.2,0-154.4-69.3-154.4-154.4c0-85.2,69.3-154.4,154.4-154.4c85.2,0,154.4,69.3,154.4,154.4
			C401.9,846,332.7,915.3,247.5,915.3z M247.5,612.3C165.6,612.3,99,678.9,99,760.8c0,81.9,66.6,148.5,148.5,148.5
			c81.9,0,148.5-66.6,148.5-148.5C396,678.9,329.4,612.3,247.5,612.3z"/>
	</g>
	<g>
		<g>
			<path fill="#50BCDB" d="M256.9,658.9l-58.7,60.7h-38c-6.1,0-11.1,5-11.1,11.1v60.5c0,6.1,4.9,11.1,11.1,11.1h38l58.7,60.7V658.9z
				"/>
			<path d="M256.9,865.7c-0.8,0-1.6-0.3-2.1-0.9l-57.8-59.8h-36.7c-7.7,0-14-6.3-14-14v-60.5c0-7.7,6.3-14,14-14h36.7l57.8-59.8
				c0.8-0.9,2.1-1.1,3.2-0.7c1.1,0.5,1.8,1.5,1.8,2.7v203.9c0,1.2-0.7,2.3-1.8,2.7C257.6,865.7,257.2,865.7,256.9,865.7z
				 M160.2,722.5c-4.5,0-8.1,3.6-8.1,8.1v60.5c0,4.5,3.6,8.1,8.1,8.1h38c0.8,0,1.6,0.3,2.1,0.9l53.6,55.4V666.2l-53.6,55.4
				c-0.6,0.6-1.3,0.9-2.1,0.9H160.2z"/>
		</g>
		<g>
			<path d="M278.2,799.1c-0.8,0-1.5-0.3-2.1-0.9c-1.2-1.2-1.2-3,0-4.2c18.3-18.3,18.3-48.1,0-66.4c-1.2-1.2-1.2-3,0-4.2
				c1.2-1.2,3-1.2,4.2,0c20.6,20.6,20.6,54.2,0,74.8C279.7,798.8,279,799.1,278.2,799.1z"/>
		</g>
		<g>
			<path d="M296.8,817.7c-0.8,0-1.5-0.3-2.1-0.9c-1.2-1.2-1.2-3,0-4.2c28.6-28.6,28.6-75.1,0-103.6c-1.2-1.2-1.2-3,0-4.2
				c1.2-1.2,3-1.2,4.2,0c30.9,30.9,30.9,81.1,0,112C298.4,817.4,297.6,817.7,296.8,817.7z"/>
		</g>
		<g>
			<path d="M315.7,836.6c-0.8,0-1.5-0.3-2.1-0.9c-1.2-1.2-1.2-3,0-4.2c18.9-18.9,29.3-44,29.3-70.7c0-26.7-10.4-51.8-29.3-70.7
				c-1.2-1.2-1.2-3,0-4.2c1.2-1.2,3-1.2,4.2,0c20,20,31,46.6,31,74.9c0,28.3-11,54.9-31,74.9C317.2,836.3,316.5,836.6,315.7,836.6z"
				/>
		</g>
	</g>
	<g>
		<path d="M563.3,899.8H433.3c-1.6,0-3-1.3-3-3s1.3-3,3-3h130.1c1.6,0,3,1.3,3,3S565,899.8,563.3,899.8z"/>
	</g>
	<g>
		<path d="M885.6,899.8H622.5c-1.6,0-3-1.3-3-3s1.3-3,3-3h263.1c1.6,0,3,1.3,3,3S887.2,899.8,885.6,899.8z"/>
	</g>
	<g>
		<path d="M520.4,95.4h-63.7c-1.6,0-3-1.3-3-3s1.3-3,3-3h63.7c1.6,0,3,1.3,3,3S522,95.4,520.4,95.4z"/>
	</g>
	<g>
		<path d="M879.4,95.4H591.2c-1.6,0-3-1.3-3-3s1.3-3,3-3h288.2c1.6,0,3,1.3,3,3S881.1,95.4,879.4,95.4z"/>
	</g>
	<g>
		<path d="M247.5,612.3c-1.6,0-3-1.3-3-3v-61.7c0-1.6,1.3-3,3-3c1.6,0,3,1.3,3,3v61.7C250.5,611,249.1,612.3,247.5,612.3z"/>
	</g>
	<g>
		<path fill="#FFBCBB" d="M283,510.4c0,19.6-15.9,35.5-35.5,35.5c-19.6,0-35.5-15.9-35.5-35.5c0-19.6,15.9-35.5,35.5-35.5
			C267.1,474.9,283,490.8,283,510.4z"/>
		<path d="M247.5,548.9c-21.2,0-38.4-17.2-38.4-38.4c0-21.2,17.2-38.4,38.4-38.4s38.4,17.2,38.4,38.4
			C285.9,531.6,268.7,548.9,247.5,548.9z M247.5,477.9c-17.9,0-32.5,14.6-32.5,32.5c0,17.9,14.6,32.5,32.5,32.5
			c17.9,0,32.5-14.6,32.5-32.5C280,492.5,265.4,477.9,247.5,477.9z"/>
	</g>
	<g>
		<path d="M174.5,513.4c-1.6,0-3-1.3-3-3c0-20.3,7.9-39.4,22.3-53.7c14.3-14.3,33.4-22.3,53.7-22.3c0,0,0,0,0,0
			c41.9,0,76,34.1,76,76c0,1.6-1.3,3-3,3c-1.6,0-3-1.3-3-3c0-38.6-31.4-70.1-70-70.1c0,0,0,0,0,0c-18.7,0-36.3,7.3-49.5,20.5
			s-20.5,30.8-20.5,49.5C177.4,512.1,176.1,513.4,174.5,513.4z"/>
	</g>
	<g>
		<path d="M130.8,513.4c-1.6,0-3-1.3-3-3c0-32,12.4-62,35.1-84.6c22.6-22.6,52.7-35.1,84.6-35.1c0,0,0,0,0,0
			c66,0,119.7,53.7,119.7,119.7c0,1.6-1.3,3-3,3c-1.6,0-3-1.3-3-3c0-62.7-51-113.8-113.8-113.8c0,0,0,0,0,0
			c-30.4,0-59,11.8-80.5,33.3c-21.5,21.5-33.3,50.1-33.3,80.5C133.7,512.1,132.4,513.4,130.8,513.4z"/>
	</g>
	<g>
		<g>
			<path d="M1277.2,352.4h-30.9c-1.6,0-3-1.3-3-3s1.3-3,3-3h30.9c1.6,0,3,1.3,3,3S1278.8,352.4,1277.2,352.4z"/>
		</g>
		<g>
			<path d="M1261.7,367.8c-1.6,0-3-1.3-3-3V334c0-1.6,1.3-3,3-3s3,1.3,3,3v30.9C1264.7,366.5,1263.4,367.8,1261.7,367.8z"/>
		</g>
	</g>
	<g>
		<g>
			<path d="M361.3,579.5h-30.9c-1.6,0-3-1.3-3-3c0-1.6,1.3-3,3-3h30.9c1.6,0,3,1.3,3,3C364.3,578.1,362.9,579.5,361.3,579.5z"/>
		</g>
		<g>
			<path d="M345.9,594.9c-1.6,0-3-1.3-3-3V561c0-1.6,1.3-3,3-3s3,1.3,3,3V592C348.8,593.6,347.5,594.9,345.9,594.9z"/>
		</g>
	</g>
	<g>
		<path d="M1118.9,442.7h-31.3c-1.6,0-3-1.3-3-3c0-1.6,1.3-3,3-3h31.3c1.6,0,3,1.3,3,3C1121.8,441.4,1120.5,442.7,1118.9,442.7z"/>
	</g>
	<g>
		<path d="M127.3,574.9H96c-1.6,0-3-1.3-3-3c0-1.6,1.3-3,3-3h31.3c1.6,0,3,1.3,3,3C130.2,573.6,128.9,574.9,127.3,574.9z"/>
	</g>
	<g>
		<path d="M926.6,250.6c-9.6,0-17.4-7.8-17.4-17.4c0-9.6,7.8-17.4,17.4-17.4s17.4,7.8,17.4,17.4
			C944.1,242.8,936.2,250.6,926.6,250.6z M926.6,221.7c-6.3,0-11.5,5.2-11.5,11.5s5.2,11.5,11.5,11.5c6.3,0,11.5-5.2,11.5-11.5
			S933,221.7,926.6,221.7z"/>
	</g>
	<g>
		<path d="M399,417.9c-9.6,0-17.4-7.8-17.4-17.4s7.8-17.4,17.4-17.4c9.6,0,17.4,7.8,17.4,17.4S408.6,417.9,399,417.9z M399,389
			c-6.3,0-11.5,5.2-11.5,11.5S392.6,412,399,412c6.3,0,11.5-5.2,11.5-11.5S405.3,389,399,389z"/>
	</g>
	<g>
		<path d="M1087.6,529.8c-7.7,0-13.9-6.2-13.9-13.9c0-7.7,6.2-13.9,13.9-13.9c7.7,0,13.9,6.2,13.9,13.9
			C1101.5,523.6,1095.3,529.8,1087.6,529.8z M1087.6,508c-4.4,0-8,3.6-8,8s3.6,8,8,8c4.4,0,8-3.6,8-8S1092,508,1087.6,508z"/>
	</g>
	<g>
		<path d="M433.3,574.9c-7.7,0-13.9-6.2-13.9-13.9c0-7.7,6.2-13.9,13.9-13.9c7.7,0,13.9,6.2,13.9,13.9
			C447.1,568.7,440.9,574.9,433.3,574.9z M433.3,553.1c-4.4,0-8,3.6-8,8c0,4.4,3.6,8,8,8c4.4,0,8-3.6,8-8
			C441.2,556.7,437.7,553.1,433.3,553.1z"/>
	</g>
	<g>
		<path d="M995,288.7h-31.5c-1.6,0-3-1.3-3-3s1.3-3,3-3H995c1.6,0,3,1.3,3,3S996.6,288.7,995,288.7z"/>
	</g>
	<g>
		<path d="M449,463h-31.5c-1.6,0-3-1.3-3-3s1.3-3,3-3H449c1.6,0,3,1.3,3,3S450.7,463,449,463z"/>
	</g>
</g>
</svg>
