<?xml version="1.0" encoding="utf-8"?>
<!-- Generator: Adobe Illustrator 16.0.0, SVG Export Plug-In . SVG Version: 6.00 Build 0)  -->
<!DOCTYPE svg PUBLIC "-//W3C//DTD SVG 1.1//EN" "http://www.w3.org/Graphics/SVG/1.1/DTD/svg11.dtd">
<svg version="1.1" id="Layer_1" xmlns="http://www.w3.org/2000/svg" xmlns:xlink="http://www.w3.org/1999/xlink" x="0px" y="0px"
	 width="1400px" height="980px" viewBox="0 0 1400 980" enable-background="new 0 0 1400 980" xml:space="preserve">
<g>
	<g>
		<g>
			<rect fill="#FFFFFF" width="1400" height="980"/>
		</g>
	</g>
	<g>
		<path fill="#FF96A2" d="M1054.5,138c0-23.3-18.8-42.1-42.1-42.1H409.8c-23.2,0-42.1,18.8-42.1,42.1v367.5h686.7V138z"/>
		<path d="M1054.5,507.6H367.8c-1.2,0-2.1-1-2.1-2.1V138c0-24.4,19.8-44.2,44.2-44.2h602.5c24.4,0,44.2,19.8,44.2,44.2v367.5
			C1056.6,506.7,1055.6,507.6,1054.5,507.6z M369.9,503.3h682.4V138c0-22-17.9-39.9-39.9-39.9H409.8c-22,0-39.9,17.9-39.9,39.9
			V503.3z"/>
	</g>
	<g>
		<path fill="#BCBEC0" d="M367.8,505.5v46c0,23.2,18.8,42.1,42.1,42.1h602.5c23.2,0,42.1-18.8,42.1-42.1v-46H367.8z"/>
		<path d="M1012.4,595.7H409.8c-24.4,0-44.2-19.8-44.2-44.2v-46c0-1.2,1-2.1,2.1-2.1h686.7c1.2,0,2.1,1,2.1,2.1v46
			C1056.6,575.9,1036.8,595.7,1012.4,595.7z M369.9,507.6v43.9c0,22,17.9,39.9,39.9,39.9h602.5c22,0,39.9-17.9,39.9-39.9v-43.9
			H369.9z"/>
	</g>
	<g>
		<line fill="#FFB871" x1="676.3" y1="593.6" x2="676.3" y2="651.5"/>
		<path d="M676.3,653.6c-1.2,0-2.1-1-2.1-2.1v-57.9c0-1.2,1-2.1,2.1-2.1s2.1,1,2.1,2.1v57.9C678.5,652.6,677.5,653.6,676.3,653.6z"
			/>
	</g>
	<g>
		<line fill="#FFB871" x1="745.9" y1="593.6" x2="745.9" y2="651.5"/>
		<path d="M745.9,653.6c-1.2,0-2.1-1-2.1-2.1v-57.9c0-1.2,1-2.1,2.1-2.1c1.2,0,2.1,1,2.1,2.1v57.9
			C748.1,652.6,747.1,653.6,745.9,653.6z"/>
	</g>
	<g>
		<polygon fill="#BCBEC0" points="796.6,651.5 711.1,651.5 625.6,651.5 576.5,700.7 711.1,700.7 845.7,700.7 		"/>
		<path d="M845.7,702.9H576.5c-0.9,0-1.7-0.5-2-1.3c-0.3-0.8-0.2-1.7,0.5-2.3l49.1-49.2c0.4-0.4,1-0.6,1.5-0.6h171
			c0.6,0,1.1,0.2,1.5,0.6l49.1,49.2c0.6,0.6,0.8,1.5,0.5,2.3C847.4,702.3,846.6,702.9,845.7,702.9z M581.7,698.6h258.9l-44.8-44.9
			H626.5L581.7,698.6z"/>
	</g>
	<g>
		<line fill="#FFB871" x1="663.2" y1="549.5" x2="759" y2="549.5"/>
		<path d="M759,551.7h-95.7c-1.2,0-2.1-1-2.1-2.1c0-1.2,1-2.1,2.1-2.1H759c1.2,0,2.1,1,2.1,2.1C761.1,550.7,760.1,551.7,759,551.7z"
			/>
	</g>
	<g>
		<polygon fill="#D1D3D4" points="1183.1,466.8 1183.1,867.3 900.8,867.3 900.8,898.4 1211.4,898.4 1211.4,466.8 		"/>
		<path d="M1211.4,900.5H900.8c-1.2,0-2.1-1-2.1-2.1v-31.1c0-1.2,1-2.1,2.1-2.1H1181V466.8c0-1.2,1-2.1,2.1-2.1h28.3
			c1.2,0,2.1,1,2.1,2.1v431.6C1213.5,899.6,1212.6,900.5,1211.4,900.5z M903,896.2h306.3V468.9h-24v398.3c0,1.2-1,2.1-2.1,2.1H903
			V896.2z"/>
	</g>
	<g>
		<polygon fill="#D1D3D4" points="1125.2,435.7 1156.3,466.8 1156.3,836.1 900.8,836.1 872.6,836.1 872.6,867.3 900.8,867.3 
			1183.1,867.3 1183.1,466.8 1183.1,435.7 		"/>
		<path d="M1183.1,869.4H872.6c-1.2,0-2.1-1-2.1-2.1v-31.1c0-1.2,1-2.1,2.1-2.1h281.6V467.7l-30.5-30.5c-0.6-0.6-0.8-1.5-0.5-2.3
			c0.3-0.8,1.1-1.3,2-1.3h57.9c1.2,0,2.1,1,2.1,2.1v431.6C1185.3,868.4,1184.3,869.4,1183.1,869.4z M874.7,865.1H1181V437.8h-50.6
			l27.4,27.4c0.4,0.4,0.6,0.9,0.6,1.5v369.4c0,1.2-1,2.1-2.1,2.1H874.7V865.1z"/>
	</g>
	<g>
		<polygon fill="#FFFFFF" points="1094.1,466.8 1094.1,435.7 1094.1,404.5 845.7,404.5 845.7,836.1 872.6,836.1 900.8,836.1 
			1156.3,836.1 1156.3,466.8 		"/>
		<path d="M1156.3,838.3H845.7c-1.2,0-2.1-1-2.1-2.1V404.5c0-1.2,1-2.1,2.1-2.1h248.3c1.2,0,2.1,1,2.1,2.1v60.1h60.1
			c1.2,0,2.1,1,2.1,2.1v369.4C1158.4,837.3,1157.5,838.3,1156.3,838.3z M847.9,834h306.3V468.9h-60.1c-1.2,0-2.1-1-2.1-2.1v-60.1
			h-244V834z"/>
	</g>
	<g>
		<polygon fill="#F1F2F2" points="1125.2,435.7 1094.1,404.5 1094.1,435.7 1094.1,466.8 1156.3,466.8 		"/>
		<path d="M1156.3,468.9h-62.2c-1.2,0-2.1-1-2.1-2.1v-62.2c0-0.9,0.5-1.7,1.3-2c0.8-0.3,1.7-0.1,2.3,0.5l62.2,62.2
			c0.6,0.6,0.8,1.5,0.5,2.3C1157.9,468.4,1157.1,468.9,1156.3,468.9z M1096.2,464.6h54.9l-54.9-54.9V464.6z"/>
	</g>
	<g>
		<rect x="414.8" y="143.7" fill="#30C7FF" width="323.4" height="242.1"/>
		<path d="M738.2,387.9H414.8c-1.2,0-2.1-1-2.1-2.1V143.7c0-1.2,1-2.1,2.1-2.1h323.4c1.2,0,2.1,1,2.1,2.1v242.1
			C740.3,387,739.4,387.9,738.2,387.9z M417,383.6H736V145.9H417V383.6z"/>
	</g>
	<g>
		<g>
			<path d="M764.3,896.5H133.9c-19.7,0-35.7-16-35.7-35.7v-81.1c0-1.2,1-2.1,2.1-2.1h697.5c1.2,0,2.1,1,2.1,2.1v81.1
				C800,880.4,784,896.5,764.3,896.5z M102.5,781.8v78.9c0,17.3,14.1,31.4,31.4,31.4h630.4c17.3,0,31.4-14.1,31.4-31.4v-78.9H102.5z
				"/>
		</g>
		<g>
			<path d="M753.3,856.7c-10.9,0-19.7-8.8-19.7-19.7c0-10.9,8.8-19.7,19.7-19.7c10.9,0,19.7,8.8,19.7,19.7
				C773,847.8,764.1,856.7,753.3,856.7z M753.3,821.6c-8.5,0-15.4,6.9-15.4,15.4c0,8.5,6.9,15.4,15.4,15.4c8.5,0,15.4-6.9,15.4-15.4
				C768.7,828.5,761.8,821.6,753.3,821.6z"/>
		</g>
		<g>
			<path d="M138,802.3c-1.2,0-2.1-1-2.1-2.1v-20.5c0-1.2,1-2.1,2.1-2.1c1.2,0,2.1,1,2.1,2.1v20.5C140.2,801.4,139.2,802.3,138,802.3
				z"/>
		</g>
		<g>
			<path d="M163.7,817.2c-1.2,0-2.1-1-2.1-2.1v-35.3c0-1.2,1-2.1,2.1-2.1s2.1,1,2.1,2.1V815C165.8,816.2,164.8,817.2,163.7,817.2z"
				/>
		</g>
		<g>
			<path d="M189,802.3c-1.2,0-2.1-1-2.1-2.1v-20.5c0-1.2,1-2.1,2.1-2.1c1.2,0,2.1,1,2.1,2.1v20.5C191.1,801.4,190.1,802.3,189,802.3
				z"/>
		</g>
		<g>
			<path d="M214.6,817.2c-1.2,0-2.1-1-2.1-2.1v-35.3c0-1.2,1-2.1,2.1-2.1c1.2,0,2.1,1,2.1,2.1V815
				C216.7,816.2,215.8,817.2,214.6,817.2z"/>
		</g>
		<g>
			<path d="M239.9,802.3c-1.2,0-2.1-1-2.1-2.1v-20.5c0-1.2,1-2.1,2.1-2.1c1.2,0,2.1,1,2.1,2.1v20.5
				C242,801.4,241.1,802.3,239.9,802.3z"/>
		</g>
		<g>
			<path d="M265.5,817.2c-1.2,0-2.1-1-2.1-2.1v-35.3c0-1.2,1-2.1,2.1-2.1c1.2,0,2.1,1,2.1,2.1V815
				C267.7,816.2,266.7,817.2,265.5,817.2z"/>
		</g>
		<g>
			<path d="M290.8,802.3c-1.2,0-2.1-1-2.1-2.1v-20.5c0-1.2,1-2.1,2.1-2.1c1.2,0,2.1,1,2.1,2.1v20.5C293,801.4,292,802.3,290.8,802.3
				z"/>
		</g>
		<g>
			<path d="M316.4,817.2c-1.2,0-2.1-1-2.1-2.1v-35.3c0-1.2,1-2.1,2.1-2.1s2.1,1,2.1,2.1V815C318.6,816.2,317.6,817.2,316.4,817.2z"
				/>
		</g>
		<g>
			<path d="M341.7,802.3c-1.2,0-2.1-1-2.1-2.1v-20.5c0-1.2,1-2.1,2.1-2.1s2.1,1,2.1,2.1v20.5C343.9,801.4,342.9,802.3,341.7,802.3z"
				/>
		</g>
		<g>
			<path d="M367.4,817.2c-1.2,0-2.1-1-2.1-2.1v-35.3c0-1.2,1-2.1,2.1-2.1s2.1,1,2.1,2.1V815C369.5,816.2,368.6,817.2,367.4,817.2z"
				/>
		</g>
		<g>
			<path d="M392.7,802.3c-1.2,0-2.1-1-2.1-2.1v-20.5c0-1.2,1-2.1,2.1-2.1c1.2,0,2.1,1,2.1,2.1v20.5
				C394.8,801.4,393.9,802.3,392.7,802.3z"/>
		</g>
		<g>
			<path d="M418.3,817.2c-1.2,0-2.1-1-2.1-2.1v-35.3c0-1.2,1-2.1,2.1-2.1c1.2,0,2.1,1,2.1,2.1V815
				C420.4,816.2,419.5,817.2,418.3,817.2z"/>
		</g>
		<g>
			<path d="M443.6,802.3c-1.2,0-2.1-1-2.1-2.1v-20.5c0-1.2,1-2.1,2.1-2.1c1.2,0,2.1,1,2.1,2.1v20.5
				C445.7,801.4,444.8,802.3,443.6,802.3z"/>
		</g>
		<g>
			<path d="M469.2,817.2c-1.2,0-2.1-1-2.1-2.1v-35.3c0-1.2,1-2.1,2.1-2.1c1.2,0,2.1,1,2.1,2.1V815
				C471.4,816.2,470.4,817.2,469.2,817.2z"/>
		</g>
		<g>
			<path d="M494.5,802.3c-1.2,0-2.1-1-2.1-2.1v-20.5c0-1.2,1-2.1,2.1-2.1c1.2,0,2.1,1,2.1,2.1v20.5
				C496.7,801.4,495.7,802.3,494.5,802.3z"/>
		</g>
		<g>
			<path d="M520.2,817.2c-1.2,0-2.1-1-2.1-2.1v-35.3c0-1.2,1-2.1,2.1-2.1c1.2,0,2.1,1,2.1,2.1V815
				C522.3,816.2,521.3,817.2,520.2,817.2z"/>
		</g>
		<g>
			<path d="M545.5,802.3c-1.2,0-2.1-1-2.1-2.1v-20.5c0-1.2,1-2.1,2.1-2.1s2.1,1,2.1,2.1v20.5C547.6,801.4,546.6,802.3,545.5,802.3z"
				/>
		</g>
		<g>
			<path d="M571.1,817.2c-1.2,0-2.1-1-2.1-2.1v-35.3c0-1.2,1-2.1,2.1-2.1c1.2,0,2.1,1,2.1,2.1V815
				C573.2,816.2,572.3,817.2,571.1,817.2z"/>
		</g>
		<g>
			<path d="M596.4,802.3c-1.2,0-2.1-1-2.1-2.1v-20.5c0-1.2,1-2.1,2.1-2.1c1.2,0,2.1,1,2.1,2.1v20.5
				C598.5,801.4,597.6,802.3,596.4,802.3z"/>
		</g>
		<g>
			<path d="M622,817.2c-1.2,0-2.1-1-2.1-2.1v-35.3c0-1.2,1-2.1,2.1-2.1s2.1,1,2.1,2.1V815C624.2,816.2,623.2,817.2,622,817.2z"/>
		</g>
		<g>
			<path d="M647.3,802.3c-1.2,0-2.1-1-2.1-2.1v-20.5c0-1.2,1-2.1,2.1-2.1c1.2,0,2.1,1,2.1,2.1v20.5
				C649.4,801.4,648.5,802.3,647.3,802.3z"/>
		</g>
		<g>
			<path d="M672.9,817.2c-1.2,0-2.1-1-2.1-2.1v-35.3c0-1.2,1-2.1,2.1-2.1c1.2,0,2.1,1,2.1,2.1V815
				C675.1,816.2,674.1,817.2,672.9,817.2z"/>
		</g>
		<g>
			<path d="M698.2,802.3c-1.2,0-2.1-1-2.1-2.1v-20.5c0-1.2,1-2.1,2.1-2.1c1.2,0,2.1,1,2.1,2.1v20.5
				C700.4,801.4,699.4,802.3,698.2,802.3z"/>
		</g>
	</g>
	<g>
		<g>
			<rect x="1151.4" y="267.9" fill="#FFFFFF" width="119.9" height="23.3"/>
			<path d="M1271.3,293.4h-119.9c-1.2,0-2.1-1-2.1-2.1v-23.3c0-1.2,1-2.1,2.1-2.1h119.9c1.2,0,2.1,1,2.1,2.1v23.3
				C1273.5,292.5,1272.5,293.4,1271.3,293.4z M1153.6,289.1h115.6v-19h-115.6V289.1z"/>
		</g>
		<g>
			<path fill="#FFF0A1" d="M1233,267.9l15-119.9c0-20.2-16.4-36.6-36.6-36.6s-36.6,16.4-36.6,36.6l15,119.9H1233z"/>
			<path d="M1233,270.1h-43.2c-1.1,0-2-0.8-2.1-1.9l-15-119.9c0-21.6,17.4-39,38.7-39c21.4,0,38.7,17.4,38.7,38.7l-15,120.2
				C1235,269.3,1234.1,270.1,1233,270.1z M1191.7,265.8h39.4l14.8-118.1c0-18.7-15.5-34.2-34.5-34.2c-19,0-34.4,15.5-34.4,34.4
				L1191.7,265.8z"/>
		</g>
		<g>
			<path fill="#D1D3D4" d="M1300,379.2v-62.3c0-14.2-11.5-25.6-25.6-25.6h-126c-14.2,0-25.6,11.5-25.6,25.6v62.3H1300z"/>
			<path d="M1300,381.4h-177.3c-1.2,0-2.1-1-2.1-2.1v-62.3c0-15.3,12.5-27.8,27.8-27.8h126c15.3,0,27.8,12.5,27.8,27.8v62.3
				C1302.2,380.4,1301.2,381.4,1300,381.4z M1124.9,377.1h173v-60.1c0-13-10.5-23.5-23.5-23.5h-126c-12.9,0-23.5,10.5-23.5,23.5
				V377.1z"/>
		</g>
	</g>
	<g>
		<rect x="899.2" y="487.6" fill="#F1F2F2" width="195" height="195"/>
		<path d="M1094.2,684.7h-195c-1.2,0-2.1-1-2.1-2.1v-195c0-1.2,1-2.1,2.1-2.1h195c1.2,0,2.1,1,2.1,2.1v195
			C1096.4,683.8,1095.4,684.7,1094.2,684.7z M901.4,680.4h190.7V489.7H901.4V680.4z"/>
	</g>
	<g>
		<path fill="#FFB2A2" d="M937.5,757.5c0,8.2-6.7,14.9-14.9,14.9s-14.9-6.7-14.9-14.9c0-8.2,6.7-14.9,14.9-14.9
			S937.5,749.3,937.5,757.5z"/>
		<path d="M922.6,774.5c-9.4,0-17-7.6-17-17s7.6-17,17-17c9.4,0,17,7.6,17,17S932,774.5,922.6,774.5z M922.6,744.8
			c-7,0-12.7,5.7-12.7,12.7c0,7,5.7,12.7,12.7,12.7c7,0,12.7-5.7,12.7-12.7C935.3,750.5,929.6,744.8,922.6,744.8z"/>
	</g>
	<g>
		<path fill="#FFB2A2" d="M1015.9,757.5c0,8.2-6.7,14.9-14.9,14.9c-8.2,0-14.9-6.7-14.9-14.9c0-8.2,6.7-14.9,14.9-14.9
			C1009.2,742.6,1015.9,749.3,1015.9,757.5z"/>
		<path d="M1001,774.5c-9.4,0-17-7.6-17-17s7.6-17,17-17c9.4,0,17,7.6,17,17S1010.4,774.5,1001,774.5z M1001,744.8
			c-7,0-12.7,5.7-12.7,12.7c0,7,5.7,12.7,12.7,12.7c7,0,12.7-5.7,12.7-12.7C1013.7,750.5,1008,744.8,1001,744.8z"/>
	</g>
	<g>
		<path fill="#FFB2A2" d="M1094.2,757.5c0,8.2-6.7,14.9-14.9,14.9s-14.9-6.7-14.9-14.9c0-8.2,6.7-14.9,14.9-14.9
			S1094.2,749.3,1094.2,757.5z"/>
		<path d="M1079.4,774.5c-9.4,0-17-7.6-17-17s7.6-17,17-17c9.4,0,17,7.6,17,17S1088.7,774.5,1079.4,774.5z M1079.4,744.8
			c-7,0-12.7,5.7-12.7,12.7c0,7,5.7,12.7,12.7,12.7c7,0,12.7-5.7,12.7-12.7C1092.1,750.5,1086.4,744.8,1079.4,744.8z"/>
	</g>
	<g>
		<path fill="#30C7FF" d="M1047.9,597.5l20.9,0.2c1.4-8,1.4-16,0.3-23.7l-20.9-0.3c-0.7-3-1.5-5.9-2.7-8.7l17-12.1
			c-3.5-7.1-8.1-13.7-13.7-19.4l-17,12.1c-2.3-2-4.7-3.8-7.3-5.4l6.7-19.8c-3.5-1.8-7.1-3.4-10.9-4.7c-3.8-1.3-7.7-2.2-11.6-2.9
			l-6.7,19.8c-3.1-0.3-6.1-0.4-9.1-0.2l-6.2-19.9c-7.9,1.1-15.6,3.5-22.7,7.1l6.2,19.9c-2.6,1.5-5.1,3.3-7.4,5.3L946,532.5
			c-5.6,5.4-10.5,11.8-14.2,19l16.8,12.5c-0.6,1.4-1.2,2.8-1.7,4.2c-0.5,1.5-0.9,2.9-1.2,4.4l-20.9-0.2c-1.4,8-1.5,16-0.3,23.8
			l20.9,0.2c0.6,3,1.5,5.9,2.7,8.7l-17,12.1c3.5,7.1,8.1,13.7,13.7,19.4l17-12.1c2.2,2,4.7,3.8,7.3,5.4l-6.7,19.8
			c3.5,1.8,7.1,3.4,10.9,4.7c3.8,1.3,7.7,2.2,11.6,2.9l6.7-19.8c3.1,0.3,6.1,0.4,9.1,0.2l6.2,19.9c7.9-1.1,15.6-3.5,22.7-7.1
			l-6.2-19.9c2.6-1.5,5.1-3.3,7.4-5.3l16.8,12.5c5.6-5.4,10.5-11.8,14.2-19l-16.8-12.5c0.6-1.4,1.2-2.8,1.7-4.2
			C1047.1,600.5,1047.5,599,1047.9,597.5z M996.7,619.4c-19,0-34.4-15.4-34.4-34.3c0-19,15.4-34.3,34.4-34.3
			c19,0,34.4,15.4,34.4,34.3C1031.1,604,1015.7,619.4,996.7,619.4z"/>
		<path d="M1006.9,659.6c-0.9,0-1.8-0.6-2.1-1.5l-5.7-18.3c-2,0.1-4,0-6.1-0.1l-6.1,18.2c-0.3,1-1.3,1.6-2.4,1.4
			c-4.1-0.7-8.2-1.7-11.9-3c-3.7-1.3-7.5-2.9-11.2-4.8c-0.9-0.5-1.4-1.6-1-2.6l6.1-18.2c-1.7-1.1-3.4-2.3-4.9-3.6L946,638.2
			c-0.9,0.6-2,0.5-2.8-0.2c-5.8-5.9-10.5-12.6-14.1-20c-0.5-0.9-0.2-2.1,0.7-2.7l15.7-11.1c-0.7-1.9-1.3-3.8-1.8-5.8l-19.2-0.2
			c-1.1,0-1.9-0.8-2.1-1.8c-1.2-8.2-1.2-16.4,0.3-24.5c0.2-1,1.1-1.8,2.1-1.8c0,0,0,0,0,0l19.2,0.2c0.3-1,0.5-1.9,0.9-2.9
			c0.3-1,0.7-1.9,1.1-2.8l-15.4-11.5c-0.8-0.6-1.1-1.8-0.6-2.7c3.8-7.3,8.7-13.9,14.6-19.6c0.8-0.7,1.9-0.8,2.8-0.2l15.4,11.5
			c1.6-1.3,3.2-2.4,4.9-3.5l-5.7-18.3c-0.3-1,0.1-2.1,1.1-2.6c7.3-3.7,15.2-6.1,23.3-7.3c1-0.1,2,0.5,2.4,1.5l5.7,18.3
			c2-0.1,4,0,6,0.1l6.1-18.2c0.3-1,1.4-1.6,2.4-1.4c4.1,0.7,8.1,1.7,11.9,3c3.8,1.3,7.6,2.9,11.3,4.9c0.9,0.5,1.4,1.6,1,2.6
			l-6.1,18.2c1.7,1.1,3.4,2.3,4.9,3.6l15.6-11.1c0.9-0.6,2-0.5,2.8,0.2c5.8,5.9,10.6,12.6,14.1,20c0.5,0.9,0.2,2.1-0.7,2.7
			l-15.7,11.1c0.7,1.8,1.3,3.8,1.8,5.8l19.2,0.2c1.1,0,1.9,0.8,2.1,1.8c1.2,8.1,1.1,16.3-0.3,24.4c-0.2,1-1.1,1.7-2.1,1.8l-19.2-0.2
			c-0.3,1-0.6,1.9-0.9,2.9c-0.3,1-0.7,1.9-1.1,2.8l15.4,11.5c0.8,0.6,1.1,1.8,0.6,2.7c-3.8,7.3-8.7,13.9-14.6,19.6
			c-0.8,0.7-1.9,0.8-2.8,0.2l-15.4-11.5c-1.6,1.3-3.2,2.4-4.9,3.5l5.7,18.3c0.3,1-0.1,2.1-1.1,2.6c-7.3,3.7-15.2,6.1-23.3,7.3
			C1007.1,659.6,1007,659.6,1006.9,659.6z M1000.7,635.4c0.9,0,1.8,0.6,2.1,1.5l5.7,18.1c6.4-1.1,12.7-3,18.6-5.8l-5.7-18.2
			c-0.3-0.9,0.1-2,1-2.5c2.5-1.5,4.9-3.2,7.1-5.1c0.8-0.6,1.9-0.7,2.7-0.1l15.3,11.4c4.6-4.7,8.5-9.9,11.6-15.6l-15.3-11.4
			c-0.8-0.6-1.1-1.7-0.7-2.6c0.6-1.3,1.1-2.7,1.6-4c0.5-1.4,0.9-2.8,1.2-4.2c0.2-1,1.2-1.8,2.1-1.6l19,0.2c1-6.5,1-13,0.2-19.4
			l-19.1-0.2c-1,0-1.9-0.7-2.1-1.7c-0.6-2.9-1.5-5.7-2.6-8.3c-0.4-0.9-0.1-2,0.7-2.6l15.5-11c-3-5.8-6.8-11.1-11.3-15.9l-15.5,11
			c-0.8,0.6-1.9,0.5-2.7-0.1c-2.1-1.8-4.5-3.6-7-5.2c-0.8-0.5-1.2-1.6-0.9-2.5l6.1-18c-3-1.5-6-2.7-9-3.8c-3-1-6.2-1.9-9.4-2.5
			l-6.1,18c-0.3,0.9-1.2,1.6-2.3,1.4c-2.9-0.3-5.8-0.4-8.7-0.2c-1,0.1-1.9-0.5-2.2-1.5l-5.7-18.1c-6.4,1.1-12.7,3-18.6,5.8l5.7,18.2
			c0.3,1-0.1,2-1,2.5c-2.5,1.4-4.9,3.1-7.1,5c-0.8,0.6-1.9,0.7-2.7,0.1l-15.3-11.4c-4.6,4.7-8.5,9.9-11.6,15.6l15.3,11.4
			c0.8,0.6,1.1,1.7,0.7,2.6c-0.6,1.3-1.1,2.7-1.6,4.1c-0.5,1.4-0.8,2.8-1.2,4.2c-0.2,1-1.2,1.7-2.1,1.6l-19-0.2
			c-1,6.4-1,13-0.2,19.5l19.1,0.2c1,0,1.9,0.7,2.1,1.7c0.6,2.8,1.5,5.6,2.6,8.3c0.4,0.9,0.1,2-0.7,2.6l-15.5,11
			c3,5.8,6.8,11.1,11.2,15.9l15.5-11c0.8-0.6,1.9-0.5,2.7,0.2c2,1.8,4.4,3.6,7,5.2c0.9,0.5,1.2,1.6,0.9,2.5l-6.1,18
			c3,1.5,6,2.7,9,3.7c3,1,6.2,1.9,9.4,2.5l6.1-18c0.3-0.9,1.2-1.5,2.3-1.4c2.9,0.3,5.8,0.4,8.7,0.2
			C1000.6,635.4,1000.6,635.4,1000.7,635.4z M996.7,621.6c-20.1,0-36.5-16.4-36.5-36.5s16.4-36.5,36.5-36.5
			c20.1,0,36.5,16.4,36.5,36.5S1016.9,621.6,996.7,621.6z M996.7,552.9c-17.8,0-32.2,14.4-32.2,32.2s14.4,32.2,32.2,32.2
			c17.8,0,32.2-14.4,32.2-32.2S1014.5,552.9,996.7,552.9z"/>
	</g>
	<g>
		<g>
			<g>
				<rect x="1275.8" y="530.1" fill="#FF96A2" width="49.5" height="252.7"/>
				<path d="M1325.3,785h-49.5c-1.2,0-2.1-1-2.1-2.1V530.1c0-1.2,1-2.1,2.1-2.1h49.5c1.2,0,2.1,1,2.1,2.1v252.7
					C1327.4,784.1,1326.5,785,1325.3,785z M1277.9,780.7h45.2V532.3h-45.2V780.7z"/>
			</g>
			<g>
				<path fill="#FFFFFF" d="M1325.3,869.8v-17.4h-49.5v17.4c0,13.7,11.1,24.7,24.7,24.7C1314.2,894.5,1325.3,883.5,1325.3,869.8z"/>
				<path d="M1300.5,896.7c-14.8,0-26.9-12.1-26.9-26.9v-17.4c0-1.2,1-2.1,2.1-2.1h49.5c1.2,0,2.1,1,2.1,2.1v17.4
					C1327.4,884.6,1315.4,896.7,1300.5,896.7z M1277.9,854.6v15.2c0,12.5,10.1,22.6,22.6,22.6c12.5,0,22.6-10.1,22.6-22.6v-15.2
					H1277.9z"/>
			</g>
			<g>
				<rect x="1275.8" y="782.9" fill="#30C7FF" width="49.5" height="69.5"/>
				<path d="M1325.3,854.6h-49.5c-1.2,0-2.1-1-2.1-2.1v-69.5c0-1.2,1-2.1,2.1-2.1h49.5c1.2,0,2.1,1,2.1,2.1v69.5
					C1327.4,853.6,1326.5,854.6,1325.3,854.6z M1277.9,850.3h45.2V785h-45.2V850.3z"/>
			</g>
		</g>
		<g>
			<g>
				<polygon fill="#FFFFFF" points="1325.3,530.1 1310,493.4 1288.3,500.1 1275.8,530.1 				"/>
				<path d="M1325.3,532.3h-49.5c-0.7,0-1.4-0.4-1.8-1c-0.4-0.6-0.5-1.4-0.2-2l12.5-30.1c0.2-0.6,0.7-1,1.4-1.2l21.7-6.7
					c1.1-0.3,2.2,0.2,2.6,1.2l15.3,36.7c0.3,0.7,0.2,1.4-0.2,2C1326.7,531.9,1326,532.3,1325.3,532.3z M1279,528h43l-13.3-32
					l-18.9,5.8L1279,528z"/>
			</g>
			<g>
				<polygon fill="#BCBEC0" points="1300.5,470.6 1288.3,500.1 1310,493.4 				"/>
				<path d="M1288.3,502.2c-0.6,0-1.2-0.2-1.6-0.7c-0.6-0.6-0.7-1.5-0.4-2.3l12.2-29.4c0.3-0.8,1.1-1.3,2-1.3l0,0
					c0.9,0,1.6,0.5,2,1.3l9.5,22.8c0.2,0.6,0.2,1.2,0,1.7c-0.3,0.5-0.7,1-1.3,1.1l-21.7,6.7C1288.7,502.2,1288.5,502.2,1288.3,502.2
					z M1300.5,476.2l-8.5,20.4l15.1-4.6L1300.5,476.2z"/>
			</g>
		</g>
	</g>
	<g>
		<g>
			<polygon fill="#FFFFFF" points="542.9,207.5 453.6,207.5 487.5,239 576.7,239 			"/>
			<path d="M576.7,241.2h-89.3c-0.5,0-1.1-0.2-1.5-0.6l-33.8-31.5c-0.6-0.6-0.9-1.5-0.5-2.4c0.3-0.8,1.1-1.4,2-1.4h89.3
				c0.5,0,1.1,0.2,1.5,0.6l33.8,31.5c0.6,0.6,0.9,1.5,0.5,2.4C578.4,240.6,577.6,241.2,576.7,241.2z M488.3,236.9h83l-29.2-27.2h-83
				L488.3,236.9z"/>
		</g>
		<g>
			<polygon fill="#FFFFFF" points="610.5,207.5 576.7,239 666,239 699.8,207.5 			"/>
			<path d="M666,241.2h-89.3c-0.9,0-1.7-0.5-2-1.4c-0.3-0.8-0.1-1.8,0.5-2.4l33.8-31.5c0.4-0.4,0.9-0.6,1.5-0.6h89.3
				c0.9,0,1.7,0.5,2,1.4c0.3,0.8,0.1,1.8-0.5,2.4l-33.8,31.5C667.1,240.9,666.5,241.2,666,241.2z M582.2,236.9h83l29.2-27.2h-83
				L582.2,236.9z"/>
		</g>
		<g>
			<rect x="487.5" y="239" fill="#FFFFFF" width="89.3" height="101.2"/>
			<path d="M576.7,342.4h-89.3c-1.2,0-2.1-1-2.1-2.1V239c0-1.2,1-2.1,2.1-2.1h89.3c1.2,0,2.1,1,2.1,2.1v101.2
				C578.9,341.4,577.9,342.4,576.7,342.4z M489.6,338.1h85v-96.9h-85V338.1z"/>
		</g>
		<g>
			<rect x="576.7" y="239" fill="#FFFFFF" width="89.3" height="101.2"/>
			<path d="M666,342.4h-89.3c-1.2,0-2.1-1-2.1-2.1V239c0-1.2,1-2.1,2.1-2.1H666c1.2,0,2.1,1,2.1,2.1v101.2
				C668.1,341.4,667.2,342.4,666,342.4z M578.9,338.1h85v-96.9h-85V338.1z"/>
		</g>
	</g>
	<g>
		<path fill="#FFFFFF" d="M847.1,191.6c0,14.6-11.9,26.5-26.5,26.5c-14.6,0-26.5-11.9-26.5-26.5c0-14.6,11.9-26.5,26.5-26.5
			C835.3,165.1,847.1,177,847.1,191.6z"/>
		<path d="M820.6,220.3c-15.8,0-28.6-12.9-28.6-28.7c0-15.8,12.9-28.6,28.6-28.6c15.8,0,28.6,12.8,28.6,28.6
			C849.3,207.4,836.4,220.3,820.6,220.3z M820.6,167.3c-13.4,0-24.3,10.9-24.3,24.3c0,13.4,10.9,24.4,24.3,24.4
			c13.4,0,24.3-10.9,24.3-24.4C845,178.2,834.1,167.3,820.6,167.3z"/>
	</g>
	<g>
		<path fill="#FFFFFF" d="M978.9,191.6c0,14.6-11.9,26.5-26.5,26.5c-14.6,0-26.5-11.9-26.5-26.5c0-14.6,11.9-26.5,26.5-26.5
			C967,165.1,978.9,177,978.9,191.6z"/>
		<path d="M952.4,220.3c-15.8,0-28.6-12.9-28.6-28.7c0-15.8,12.9-28.6,28.6-28.6c15.8,0,28.6,12.8,28.6,28.6
			C981.1,207.4,968.2,220.3,952.4,220.3z M952.4,167.3c-13.4,0-24.3,10.9-24.3,24.3c0,13.4,10.9,24.4,24.3,24.4
			c13.4,0,24.3-10.9,24.3-24.4C976.8,178.2,965.8,167.3,952.4,167.3z"/>
	</g>
	<g>
		<path d="M925.9,193.8h-78.8c-1.2,0-2.1-1-2.1-2.1c0-1.2,1-2.1,2.1-2.1h78.8c1.2,0,2.1,1,2.1,2.1
			C928.1,192.8,927.1,193.8,925.9,193.8z"/>
	</g>
	<g>
		<rect x="794.2" y="264" fill="#FFFFFF" width="221.7" height="24.2"/>
		<path d="M1015.9,290.4H794.2c-1.2,0-2.1-1-2.1-2.1V264c0-1.2,1-2.1,2.1-2.1h221.7c1.2,0,2.1,1,2.1,2.1v24.2
			C1018,289.4,1017.1,290.4,1015.9,290.4z M796.3,286.1h217.4v-19.9H796.3V286.1z"/>
	</g>
	<g>
		<rect x="794.2" y="330.4" fill="#FFFFFF" width="221.7" height="24.2"/>
		<path d="M1015.9,356.8H794.2c-1.2,0-2.1-1-2.1-2.1v-24.2c0-1.2,1-2.1,2.1-2.1h221.7c1.2,0,2.1,1,2.1,2.1v24.2
			C1018,355.8,1017.1,356.8,1015.9,356.8z M796.3,352.5h217.4v-19.9H796.3V352.5z"/>
	</g>
	<g>
		<path d="M797.8,432.4h-383c-1.2,0-2.1-1-2.1-2.1c0-1.2,1-2.1,2.1-2.1h383c1.2,0,2.1,1,2.1,2.1C800,431.4,799,432.4,797.8,432.4z"
			/>
	</g>
	<g>
		<path d="M543.6,468.9H414.8c-1.2,0-2.1-1-2.1-2.1c0-1.2,1-2.1,2.1-2.1h128.8c1.2,0,2.1,1,2.1,2.1
			C545.7,468,544.8,468.9,543.6,468.9z"/>
	</g>
	<g>
		<g>
			<polygon fill="#FFFFFF" points="297.2,534.9 408.9,460.9 408.9,534.9 408.9,559.4 408.9,641.9 284.4,559.4 272.4,551.4 			"/>
			<path d="M408.9,644c-0.4,0-0.8-0.1-1.2-0.4l-136.5-90.5c-0.6-0.4-1-1.1-1-1.8c0-0.7,0.4-1.4,1-1.8l136.5-90.5
				c0.7-0.4,1.5-0.5,2.2-0.1c0.7,0.4,1.1,1.1,1.1,1.9v181c0,0.8-0.4,1.5-1.1,1.9C409.6,644,409.2,644,408.9,644z M276.2,551.4
				l130.5,86.5v-173L276.2,551.4z"/>
		</g>
		<g>
			<polygon fill="#FFFFFF" points="190.9,536 214.2,551.4 190.9,566.8 77.6,641.9 77.6,460.9 			"/>
			<path d="M77.6,644c-0.3,0-0.7-0.1-1-0.3c-0.7-0.4-1.1-1.1-1.1-1.9v-181c0-0.8,0.4-1.5,1.1-1.9c0.7-0.4,1.5-0.3,2.2,0.1
				l136.5,90.5c0.6,0.4,1,1.1,1,1.8s-0.4,1.4-1,1.8L78.8,643.7C78.5,643.9,78,644,77.6,644z M79.8,464.9v173l130.5-86.5L79.8,464.9z
				"/>
		</g>
		<g>
			<polygon fill="#F1F2F2" points="408.9,460.9 297.2,534.9 272.4,551.4 260.3,559.4 243.3,570.7 226.2,559.4 214.2,551.4 
				190.9,536 77.6,460.9 			"/>
			<path d="M243.3,572.8c-0.4,0-0.8-0.1-1.2-0.4L76.4,462.7c-0.8-0.5-1.1-1.5-0.9-2.4c0.3-0.9,1.1-1.5,2.1-1.5h331.2
				c0.9,0,1.8,0.6,2.1,1.5c0.3,0.9-0.1,1.9-0.9,2.4L244.4,572.5C244.1,572.7,243.7,572.8,243.3,572.8z M84.8,463.1l158.5,105.1
				l158.5-105.1H84.8z"/>
		</g>
		<g>
			<polygon fill="#FFF0A1" points="190.9,566.8 214.2,551.4 226.2,559.4 243.3,570.7 260.3,559.4 272.4,551.4 284.4,559.4 
				408.9,641.9 408.9,694.9 330.8,641.9 215.3,641.9 190.9,641.9 77.6,641.9 			"/>
			<path d="M408.9,697c-0.4,0-0.8-0.1-1.2-0.4L330.1,644H77.6c-0.9,0-1.8-0.6-2.1-1.5c-0.3-0.9,0.1-1.9,0.9-2.4L213,549.6
				c0.7-0.5,1.7-0.5,2.4,0l27.9,18.5l27.9-18.5c0.7-0.5,1.7-0.5,2.4,0l136.5,90.5c0.6,0.4,1,1.1,1,1.8v53c0,0.8-0.4,1.5-1.1,1.9
				C409.6,696.9,409.2,697,408.9,697z M84.8,639.7h246c0.4,0,0.9,0.1,1.2,0.4l74.7,50.7V643L272.4,554l-27.9,18.5
				c-0.7,0.5-1.7,0.5-2.4,0L214.2,554L84.8,639.7z"/>
		</g>
	</g>
	<g>
		<path fill="#30C7FF" d="M312.9,108.5c0-7.1-5.8-12.9-12.9-12.9H90.5c-7.1,0-12.9,5.8-12.9,12.9v27.3h235.2V108.5z"/>
		<path d="M312.9,137.9H77.6c-1.2,0-2.1-1-2.1-2.1v-27.3c0-8.3,6.7-15,15-15H300c8.3,0,15,6.7,15,15v27.3
			C315,137,314.1,137.9,312.9,137.9z M79.8,133.7h230.9v-25.1c0-5.9-4.8-10.7-10.7-10.7H90.5c-5.9,0-10.7,4.8-10.7,10.7V133.7z"/>
	</g>
	<g>
		<path d="M312.9,406.7H77.6c-1.2,0-2.1-1-2.1-2.1V135.8c0-1.2,1-2.1,2.1-2.1h235.2c1.2,0,2.1,1,2.1,2.1v268.7
			C315,405.7,314.1,406.7,312.9,406.7z M79.8,402.4h230.9V137.9H79.8V402.4z"/>
	</g>
	<g>
		<rect x="103" y="164.4" fill="#FF96A2" width="184.6" height="138.6"/>
		<path d="M287.5,305.2H103c-1.2,0-2.1-1-2.1-2.1V164.4c0-1.2,1-2.1,2.1-2.1h184.6c1.2,0,2.1,1,2.1,2.1v138.6
			C289.7,304.3,288.7,305.2,287.5,305.2z M105.1,300.9h180.3V166.6H105.1V300.9z"/>
	</g>
	<g>
		<polygon fill="#FFFFFF" points="160.8,193.8 229.7,233.5 160.8,273.3 		"/>
		<path d="M160.8,275.5c-0.4,0-0.7-0.1-1.1-0.3c-0.7-0.4-1.1-1.1-1.1-1.9v-79.6c0-0.8,0.4-1.5,1.1-1.9c0.7-0.4,1.5-0.4,2.1,0
			l68.9,39.8c0.7,0.4,1.1,1.1,1.1,1.9c0,0.8-0.4,1.5-1.1,1.9l-68.9,39.8C161.5,275.4,161.2,275.5,160.8,275.5z M162.9,197.5v72.1
			l62.5-36.1L162.9,197.5z"/>
	</g>
	<g>
		<rect x="103" y="335.3" fill="#BCBEC0" width="184.6" height="26.2"/>
		<path d="M287.5,363.6H103c-1.2,0-2.1-1-2.1-2.1v-26.2c0-1.2,1-2.1,2.1-2.1h184.6c1.2,0,2.1,1,2.1,2.1v26.2
			C289.7,362.6,288.7,363.6,287.5,363.6z M105.1,359.3h180.3v-21.9H105.1V359.3z"/>
	</g>
	<g>
		<polygon fill="#FF96A2" points="93.4,682 145.9,712.3 93.4,742.6 		"/>
		<path d="M93.4,744.8c-0.4,0-0.7-0.1-1.1-0.3c-0.7-0.4-1.1-1.1-1.1-1.9V682c0-0.8,0.4-1.5,1.1-1.9c0.7-0.4,1.5-0.4,2.1,0l52.5,30.3
			c0.7,0.4,1.1,1.1,1.1,1.9c0,0.8-0.4,1.5-1.1,1.9l-52.5,30.3C94.1,744.7,93.8,744.8,93.4,744.8z M95.6,685.7v53.2l46-26.6
			L95.6,685.7z"/>
	</g>
	<g>
		<polygon fill="#FF96A2" points="179.3,682 231.8,712.3 179.3,742.6 		"/>
		<path d="M179.3,744.8c-0.4,0-0.7-0.1-1.1-0.3c-0.7-0.4-1.1-1.1-1.1-1.9V682c0-0.8,0.4-1.5,1.1-1.9c0.7-0.4,1.5-0.4,2.1,0
			l52.5,30.3c0.7,0.4,1.1,1.1,1.1,1.9c0,0.8-0.4,1.5-1.1,1.9l-52.5,30.3C180,744.7,179.6,744.8,179.3,744.8z M181.4,685.7v53.2
			l46-26.6L181.4,685.7z"/>
	</g>
	<g>
		<polygon fill="#FF96A2" points="265.2,682 317.6,712.3 265.2,742.6 		"/>
		<path d="M265.2,744.8c-0.4,0-0.7-0.1-1.1-0.3c-0.7-0.4-1.1-1.1-1.1-1.9V682c0-0.8,0.4-1.5,1.1-1.9c0.7-0.4,1.5-0.4,2.1,0
			l52.5,30.3c0.7,0.4,1.1,1.1,1.1,1.9c0,0.8-0.4,1.5-1.1,1.9l-52.5,30.3C265.9,744.7,265.5,744.8,265.2,744.8z M267.3,685.7v53.2
			l46-26.6L267.3,685.7z"/>
	</g>
	<g>
		<path d="M576.5,702.9h-74.1c-1.2,0-2.1-1-2.1-2.1c0-1.2,1-2.1,2.1-2.1h74.1c1.2,0,2.1,1,2.1,2.1
			C578.6,701.9,577.7,702.9,576.5,702.9z"/>
	</g>
	<g>
		<path d="M561.4,668.3H449.1c-1.2,0-2.1-1-2.1-2.1s1-2.1,2.1-2.1h112.3c1.2,0,2.1,1,2.1,2.1S562.6,668.3,561.4,668.3z"/>
	</g>
	<g>
		<path d="M666,738.9H449.1c-1.2,0-2.1-1-2.1-2.1c0-1.2,1-2.1,2.1-2.1H666c1.2,0,2.1,1,2.1,2.1C668.1,737.9,667.2,738.9,666,738.9z"
			/>
	</g>
</g>
</svg>
