<?xml version="1.0" encoding="utf-8"?>
<!-- Generator: Adobe Illustrator 21.0.0, SVG Export Plug-In . SVG Version: 6.00 Build 0)  -->
<svg version="1.1" xmlns="http://www.w3.org/2000/svg" xmlns:xlink="http://www.w3.org/1999/xlink" x="0px" y="0px"
	 viewBox="0 0 1400 980" style="enable-background:new 0 0 1400 980;" xml:space="preserve">
<style type="text/css">
	.st0{fill:#14151F;}
	.st1{fill:#FFFFFF;}
	.st2{opacity:0.1;}
	.st3{fill:#F36E65;stroke:#000000;stroke-width:3;stroke-miterlimit:10;}
	.st4{fill:#FFFFFF;stroke:#000000;stroke-width:3;stroke-miterlimit:10;}
	.st5{fill:#FDAF3D;stroke:#000000;stroke-width:3;stroke-linecap:round;stroke-linejoin:round;stroke-miterlimit:10;}
	.st6{fill:#FEEE95;stroke:#000000;stroke-width:3;stroke-miterlimit:10;}
	.st7{fill:none;stroke:#000000;stroke-width:3;stroke-miterlimit:10;}
	.st8{fill:#A6D9F5;stroke:#000000;stroke-width:3;stroke-miterlimit:10;}
	.st9{fill:#23BCA7;stroke:#000000;stroke-width:3;stroke-linecap:round;stroke-linejoin:round;stroke-miterlimit:10;}
	.st10{stroke:#000000;stroke-width:3;stroke-miterlimit:10;}
	.st11{fill:#FFE6A6;stroke:#000000;stroke-width:3;stroke-miterlimit:10;}
	.st12{fill:#FFFFFF;stroke:#000000;stroke-width:3;stroke-linecap:round;stroke-linejoin:round;stroke-miterlimit:10;}
</style>
<g id="Layer_2">
	<rect x="0" y="0" class="st0" width="1400" height="980"/>
	<rect x="0" y="0" class="st1" width="1400" height="980"/>
</g>
<g id="Layer_11">
	<g>
		<g>
			<path class="st2" d="M390.4,131.9l-265.9-0.3c-3.7,0-6.7,3-6.7,6.7l0,28.4l-0.2,233.2l279.2,0.3L397,167l0-28.4
				C397.1,134.9,394.1,131.9,390.4,131.9z"/>
			<path class="st3" d="M370.2,114.3l-265.9-0.3c-3.7,0-6.7,3-6.7,6.7l0,28.4l279.2,0.3l0-28.4C376.9,117.3,373.9,114.3,370.2,114.3
				z"/>
			
				<rect x="120.6" y="126.2" transform="matrix(1.023208e-03 -1 1 1.023208e-03 -28.9735 502.7309)" class="st4" width="233.2" height="279.2"/>
			
				<rect x="132.8" y="136.5" transform="matrix(1.022742e-03 -1 1 1.022742e-03 -27.8743 501.633)" class="st5" width="208.7" height="256.4"/>
			<path class="st6" d="M170.7,204.6c0-7.7,4.6-14.3,11.1-17.3c-2.4-1.1-5.1-1.7-7.9-1.7c-10.5,0-19,8.5-19,19c0,10.5,8.5,19,19,19
				c2.8,0,5.5-0.6,7.9-1.7C175.2,218.9,170.7,212.3,170.7,204.6z"/>
			<g>
				
					<ellipse transform="matrix(1.088868e-03 -1 1 1.088868e-03 171.1587 438.9657)" class="st4" cx="305.3" cy="133.8" rx="8" ry="8"/>
				
					<ellipse transform="matrix(1.181977e-03 -1 1 1.181977e-03 198.927 466.8404)" class="st4" cx="333.2" cy="133.8" rx="8" ry="8"/>
				<ellipse transform="matrix(1.098225e-03 -1 1 1.098225e-03 226.749 494.7345)" class="st4" cx="361" cy="133.9" rx="8" ry="8"/>
			</g>
			<g>
				<path class="st4" d="M237.2,231.7c-24.5,0-44.4,19.8-44.4,44.3c0,24.5,19.8,44.4,44.3,44.4c24.5,0,44.4-19.8,44.4-44.3
					C281.5,251.6,261.7,231.7,237.2,231.7z M237.1,309.6c-18.5,0-33.5-15.1-33.5-33.6c0-18.5,15.1-33.5,33.6-33.5
					c18.5,0,33.5,15.1,33.5,33.6C270.7,294.6,255.6,309.6,237.1,309.6z"/>
				<g>
					<path class="st1" d="M261.8,274.3c1.3,0.6,1.3,1.7,0,2.4l-38.4,20.2c-1.3,0.7-2.3,0-2.3-1.4l0-37.8c0-1.4,1.1-2.1,2.4-1.5
						L261.8,274.3z"/>
					<path class="st7" d="M261.8,274.3c1.3,0.6,1.3,1.7,0,2.4l-38.4,20.2c-1.3,0.7-2.3,0-2.3-1.4l0-37.8c0-1.4,1.1-2.1,2.4-1.5
						L261.8,274.3z"/>
				</g>
			</g>
		</g>
		<g>
			<path class="st2" d="M349,79.4L83.1,79.1c-3.7,0-6.7,3-6.7,6.7l0,28.4l-0.2,233.2l279.2,0.3l0.2-233.2l0-28.4
				C355.7,82.4,352.7,79.4,349,79.4z"/>
			<path class="st3" d="M328.8,61.9L62.9,61.6c-3.7,0-6.7,3-6.7,6.7l0,28.4l279.2,0.3l0-28.4C335.5,64.8,332.5,61.9,328.8,61.9z"/>
			
				<rect x="79.2" y="73.8" transform="matrix(1.028554e-03 -1 1 1.028554e-03 -17.8292 408.9109)" class="st4" width="233.2" height="279.2"/>
			
				<rect x="91.4" y="84.1" transform="matrix(1.022742e-03 -1 1 1.022742e-03 -16.7278 407.8131)" class="st8" width="208.7" height="256.4"/>
			<path class="st9" d="M109.5,228.2c-14.3-2.6-29.6,10.7-42,25.4l-0.1,62.8l256.4,0.3l0.1-130c-42.5-0.7-93.7,89.7-93.7,89.8
				C195.9,316.6,135,233.3,109.5,228.2z"/>
			<g>
				
					<ellipse transform="matrix(1.181878e-03 -1 1 1.181878e-03 182.2835 345.1426)" class="st4" cx="263.9" cy="81.3" rx="8" ry="8"/>
				
					<ellipse transform="matrix(1.181988e-03 -1 1 1.181988e-03 210.0796 373.0291)" class="st4" cx="291.8" cy="81.4" rx="8" ry="8"/>
				
					<ellipse transform="matrix(1.088908e-03 -1 1 1.088908e-03 237.9019 400.9204)" class="st4" cx="319.6" cy="81.4" rx="8" ry="8"/>
			</g>
			<g>
				<path class="st4" d="M195.8,158.2c-24.5,0-44.4,19.8-44.4,44.3c0,24.5,19.8,44.4,44.3,44.4c24.5,0,44.4-19.8,44.4-44.3
					C240.1,178.1,220.2,158.2,195.8,158.2z M195.7,236.1c-18.5,0-33.5-15.1-33.5-33.6c0-18.5,15.1-33.5,33.6-33.5
					c18.5,0,33.5,15.1,33.5,33.6C229.2,221.1,214.2,236.1,195.7,236.1z"/>
				<g>
					<path class="st1" d="M220.4,200.8c1.3,0.6,1.3,1.7,0,2.4L182,223.3c-1.3,0.7-2.3,0-2.3-1.4l0-37.8c0-1.4,1.1-2.1,2.4-1.5
						L220.4,200.8z"/>
					<path class="st7" d="M220.4,200.8c1.3,0.6,1.3,1.7,0,2.4L182,223.3c-1.3,0.7-2.3,0-2.3-1.4l0-37.8c0-1.4,1.1-2.1,2.4-1.5
						L220.4,200.8z"/>
				</g>
			</g>
		</g>
	</g>
</g>
<g id="Layer_2_1_">
	<g>
		<path class="st2" d="M478.1,203.8v-40.2h-38.2v40.2h-2v104c0,1.8,0.7,3.7,2.1,5.1c1.4,1.4,3.2,2.1,5.1,2.1h27.8
			c1.8,0,3.7-0.7,5.1-2.1c1.4-1.4,2.1-3.2,2.1-5.1v-104H478.1z"/>
		<path class="st3" d="M471,299.7c0,1.8-0.8,3.7-2.5,5.1c-1.6,1.4-3.8,2.1-5.9,2.1H430c-2.2,0-4.3-0.7-5.9-2.1
			c-1.6-1.4-2.5-3.2-2.5-5.1v-104H471V299.7z"/>
		<rect x="427.2" y="155.5" class="st4" width="38.2" height="40.2"/>
		<g>
			<rect x="434.5" y="167.9" width="6.7" height="6.7"/>
			<rect x="451.3" y="167.9" width="6.7" height="6.7"/>
		</g>
	</g>
</g>
<g id="Layer_3">
	<g>
		<path class="st2" d="M842.6,308.5l-0.1-64.6l-337.7,0.3l0.1,64.6L842.6,308.5z M813.1,276.2c0-3.6,2.9-6.6,6.5-6.6
			c3.6,0,6.5,3,6.5,6.6c0,3.6-2.9,6.6-6.5,6.6C816,282.8,813.1,279.9,813.1,276.2z"/>
		<path class="st3" d="M849.8,295.5l-0.1-64.6L512,231.2l0.1,64.6L849.8,295.5z M820.3,263.2c0-3.6,2.9-6.6,6.5-6.6
			c3.6,0,6.5,3,6.5,6.6c0,3.6-2.9,6.6-6.5,6.6C823.2,269.8,820.3,266.9,820.3,263.2z"/>
		<g>
			<g>
				<rect x="521.3" y="231.2" transform="matrix(1 -1.319656e-03 1.319656e-03 1 -0.3159 0.6914)" width="4.8" height="17"/>
			</g>
		</g>
		<g>
			<g>
				<rect x="531.9" y="231.2" width="3.1" height="10.8"/>
			</g>
		</g>
		<g>
			<g>
				<polygon points="545.2,231.2 545.2,248.2 540.4,248.2 540.4,231.2 				"/>
			</g>
		</g>
		<g>
			<g>
				<polygon points="554,231.2 554.1,242 551,242 550.9,231.2 				"/>
			</g>
		</g>
		<g>
			<g>
				<rect x="559.4" y="231.2" width="4.9" height="17"/>
			</g>
		</g>
		<g>
			<g>
				<rect x="570" y="231.2" transform="matrix(1 -1.439817e-03 1.439817e-03 1 -0.34 0.8232)" width="3.1" height="10.8"/>
			</g>
		</g>
		<g>
			<g>
				<rect x="578.5" y="231.1" transform="matrix(1 -1.213577e-03 1.213577e-03 1 -0.2904 0.7051)" width="4.8" height="17"/>
			</g>
		</g>
		<g>
			<g>
				<polygon points="592.1,231.1 592.1,242 589.1,242 589,231.1 				"/>
			</g>
		</g>
		<g>
			<g>
				<rect x="597.5" y="231.1" width="4.8" height="17"/>
			</g>
		</g>
		<g>
			<g>
				<polygon points="611.2,231.1 611.2,242 608.1,242 608.1,231.1 				"/>
			</g>
		</g>
		<g>
			<g>
				<rect x="616.6" y="231.1" width="4.8" height="17"/>
			</g>
		</g>
		<g>
			<g>
				<polygon points="630.2,231.1 630.2,241.9 627.2,241.9 627.1,231.1 				"/>
			</g>
		</g>
		<g>
			<g>
				<rect x="635.6" y="231.1" width="4.8" height="17"/>
			</g>
		</g>
		<g>
			<g>
				<rect x="646.2" y="231.1" transform="matrix(1 -1.439458e-03 1.439458e-03 1 -0.3398 0.9326)" width="3.1" height="10.8"/>
			</g>
		</g>
		<g>
			<g>
				<rect x="654.7" y="231.1" width="4.8" height="17"/>
			</g>
		</g>
		<g>
			<g>
				<rect x="665.2" y="231.1" transform="matrix(1 -1.172159e-03 1.172159e-03 1 -0.2767 0.7818)" width="3.1" height="10.8"/>
			</g>
		</g>
		<g>
			<g>
				<polygon points="678.6,231.1 678.6,248 673.7,248 673.7,231.1 				"/>
			</g>
		</g>
		<g>
			<g>
				<rect x="684.3" y="231" width="3.1" height="10.8"/>
			</g>
		</g>
		<g>
			<g>
				<polygon points="697.6,231 697.6,248 692.8,248 692.8,231 				"/>
			</g>
		</g>
		<g>
			<g>
				<rect x="703.3" y="231" width="3.1" height="10.8"/>
			</g>
		</g>
		<g>
			<g>
				<polygon points="716.7,231 716.7,248 711.8,248 711.8,231 				"/>
			</g>
		</g>
		<g>
			<g>
				<polygon points="725.5,231 725.5,241.8 722.4,241.8 722.4,231 				"/>
			</g>
		</g>
		<g>
			<g>
				<rect x="730.9" y="231" transform="matrix(1 -1.031146e-03 1.031146e-03 1 -0.2466 0.7563)" width="4.9" height="17"/>
			</g>
		</g>
		<g>
			<g>
				<polygon points="744.5,231 744.5,241.8 741.4,241.8 741.4,231 				"/>
			</g>
		</g>
		<g>
			<g>
				<rect x="749.9" y="231" transform="matrix(1 -1.207700e-03 1.207700e-03 1 -0.2887 0.9088)" width="4.8" height="17"/>
			</g>
		</g>
		<g>
			<g>
				<polygon points="763.6,231 763.6,241.8 760.5,241.8 760.5,231 				"/>
			</g>
		</g>
		<g>
			<g>
				<rect x="769" y="231" width="4.8" height="17"/>
			</g>
		</g>
		<g>
			<g>
				<rect x="779.5" y="231" transform="matrix(1 -1.348214e-03 1.348214e-03 1 -0.318 1.0533)" width="3.1" height="10.8"/>
			</g>
		</g>
		<g>
			<g>
				<rect x="787.8" y="231" width="4.9" height="17"/>
			</g>
		</g>
		<g>
			<g>
				<polygon points="801.4,231 801.5,241.8 798.4,241.8 798.4,231 				"/>
			</g>
		</g>
		<g>
			<g>
				<rect x="806.8" y="231" transform="matrix(1 -1.208186e-03 1.208186e-03 1 -0.2887 0.9779)" width="4.8" height="17"/>
			</g>
		</g>
		<g>
			<g>
				<polygon points="820.5,231 820.5,241.8 817.4,241.8 817.4,231 				"/>
			</g>
		</g>
		<g>
			<g>
				<polygon points="830.7,231 830.7,247.9 825.9,247.9 825.9,231 				"/>
			</g>
		</g>
		<g>
			<g>
				<rect x="836.4" y="231" transform="matrix(1 -1.624408e-03 1.624408e-03 1 -0.3829 1.3616)" width="3.1" height="10.8"/>
			</g>
		</g>
	</g>
	<g>
		<polygon class="st4" points="783.3,103.7 783,103.7 783,129.8 816.7,117.6 		"/>
		<g>
			<g>
				<polygon class="st10" points="799.3,123.9 816.7,117.6 799.4,110.4 				"/>
			</g>
		</g>
		<polygon class="st9" points="761.9,103.6 761.9,103.6 596.6,103.7 596.4,130.4 768.2,130.3 768.2,130.3 781.5,130.3 783,129.8 
			783,103.7 		"/>
		<polygon class="st3" points="761.9,103.3 761.9,103.3 571.6,103.7 571.6,130.4 768.2,130 768.2,130 781.5,130 783,129.4 
			783,103.3 		"/>
		<g class="st2">
			<g>
				<path class="st1" d="M799.4,110.4"/>
			</g>
		</g>
	</g>
	<g>
		<polygon class="st4" points="632,199.1 632.3,199.1 632.3,173 598.6,185.1 		"/>
		<g>
			<g>
				<polygon class="st10" points="616,178.8 598.6,185.1 615.9,192.3 				"/>
			</g>
		</g>
		<polygon class="st11" points="653.4,199.1 653.4,199.1 760.3,199 760.5,172.3 647.1,172.4 647.1,172.4 633.8,172.4 632.3,173 
			632.3,199.1 		"/>
		<g>
			<g>
				<path class="st3" d="M785.3,188.3V183c0-5.9-4.8-10.6-10.6-10.7l-14.2,0l-0.2,26.7l14.3,0C780.6,199,785.3,194.2,785.3,188.3z"
					/>
			</g>
		</g>
		<g class="st2">
			<g>
				<path class="st1" d="M615.9,192.3"/>
			</g>
		</g>
	</g>
</g>
<g id="Layer_4">
	<g>
		<path class="st2" d="M1317.5,153.1h-210.7v-15.5c0-10.5-9-19.1-20.1-19.1H949.3v81.6V303v168.1h388.5V172.5
			C1337.8,161.8,1328.7,153.1,1317.5,153.1z"/>
		<path class="st9" d="M1293.2,137.4h-210.7v-16.3c0-11.1-9-20.1-20.1-20.1H925.1v58.5v108.2v203.4h388.5V157.7
			C1313.6,146.5,1304.5,137.4,1293.2,137.4z"/>
		<g class="st2">
			<g>
				<rect x="1304.7" y="102.7" width="66.2" height="66.2"/>
			</g>
		</g>
		<g>
			<g>
				<rect x="1293.1" y="89.6" class="st4" width="66.2" height="66.2"/>
			</g>
		</g>
		<path class="st9" d="M1344.6,104.9c-2.2-2.3-5.8-2.3-8.1-0.1l-10.2,9.9l-9.9-10.2c-2.2-2.3-5.8-2.3-8.1-0.1
			c-2.3,2.2-2.3,5.8-0.1,8.1l9.9,10.2l-10.2,9.9c-2.3,2.2-2.3,5.8-0.1,8.1c1.2,1.3,2.9,1.8,4.5,1.7c1.3-0.1,2.6-0.6,3.6-1.6
			l10.2-9.9l9.9,10.2c1.2,1.3,2.9,1.8,4.5,1.7c1.3-0.1,2.6-0.6,3.6-1.6c2.3-2.2,2.3-5.8,0.1-8.1l-9.9-10.2l10.2-9.9
			C1346.8,110.7,1346.8,107.1,1344.6,104.9z"/>
		<rect x="947" y="118.6" class="st4" width="109.6" height="15.5"/>
		<rect x="942.4" y="173.5" class="st3" width="351.3" height="61.2"/>
		<rect x="942.4" y="234.7" class="st4" width="351.3" height="222.8"/>
		<rect x="1039.6" y="262.7" class="st5" width="157" height="18.6"/>
		<rect x="969.1" y="302.6" class="st5" width="298.1" height="18.6"/>
		<rect x="969.1" y="342.5" class="st5" width="298.1" height="20"/>
		<rect x="987.7" y="390.4" class="st3" width="254.2" height="56.5"/>
	</g>
</g>
<g id="Layer_7">
	<g>
		<polygon class="st2" points="226.7,451.5 95.6,451.5 95.6,457.4 95.6,745 307,745 307,520.5 		"/>
		<g>
			<g>
				<g>
					<polygon class="st9" points="213.8,424.7 82.8,424.7 82.8,430.6 82.8,718.3 294.1,718.3 294.1,493.8 					"/>
				</g>
			</g>
			<g>
				<g>
					<g>
						<path class="st1" d="M187.2,601.2c0.3,0,0.5-0.1,0.8-0.1c0.8-0.1,1.5,0,2.3,0.2c4.8-38.4,37-68.2,75.7-68.1l0-3.2
							C225.5,529.9,192,561,187.2,601.2z"/>
					</g>
				</g>
				<g>
					<g>
						
							<rect x="255.7" y="521.6" transform="matrix(2.790258e-03 -1 1 2.790258e-03 -266.3794 795.9885)" class="st1" width="20.5" height="19.9"/>
					</g>
				</g>
				<g>
					<g>
						<path class="st1" d="M188.8,620.7c-0.8-0.1-1.7-0.1-2.5-0.2c-4.6,38.7-36.8,68.7-75.7,68.6l0,3.2
							c40.5,0.1,74.1-31.3,78.8-71.6C189.2,620.6,189,620.7,188.8,620.7z"/>
					</g>
				</g>
				<g>
					<g>
						
							<rect x="100.3" y="680.7" transform="matrix(2.790258e-03 -1 1 2.790258e-03 -580.4278 799.3039)" class="st1" width="20.5" height="19.9"/>
					</g>
				</g>
				<g>
					<g>
						
							<rect x="178" y="536.8" transform="matrix(2.790258e-03 -1 1 2.790258e-03 -358.9804 733.4655)" class="st1" width="20.5" height="19.9"/>
					</g>
				</g>
				<g>
					<g>
						
							<rect x="177.7" y="665.5" transform="matrix(2.790258e-03 -1 1 2.790258e-03 -488.035 861.4443)" class="st1" width="20.5" height="19.9"/>
					</g>
				</g>
				<g>
					<g>
						<path class="st1" d="M199.1,599.8l-0.1,22.6l-22-0.1l0.1-22.6L199.1,599.8z M197,620.3l0.1-18.4l-17.9,0l-0.1,18.4L197,620.3z
							"/>
					</g>
				</g>
				<g>
					<g>
						<path class="st1" d="M186.7,601.3c0.4-0.1,0.8-0.2,1.3-0.2c0.6,0,1.1,0,1.7,0.1l0.2-54.4l-3.1,0l-0.2,54.6
							C186.6,601.3,186.7,601.3,186.7,601.3z"/>
						<path class="st1" d="M188.8,620.7c-0.7-0.1-1.5-0.1-2.2-0.2l-0.2,54.9l3.1,0l0.2-54.8C189.3,620.6,189,620.7,188.8,620.7z"/>
					</g>
				</g>
			</g>
			<rect x="109.6" y="507.9" class="st4" width="89.8" height="12.7"/>
			<g>
				<g>
					<polygon class="st4" points="215.8,493.8 296.1,493.8 215.8,424.7 					"/>
				</g>
			</g>
		</g>
	</g>
</g>
<g id="Layer_5">
	<g>
		<path class="st2" d="M1090.9,819V430.7c0-9-7.3-16.4-16.4-16.4H421.9c-9,0-16.4,7.3-16.4,16.4V819H1090.9z"/>
		<path class="st9" d="M1050.9,779.9V391.6c0-9-7.3-16.4-16.4-16.4H381.9c-9,0-16.4,7.3-16.4,16.4v388.3H1050.9z"/>
		<path class="st5" d="M1025.9,779.2v-346c0-8.4-6.8-15.2-15.2-15.2H405.6c-8.4,0-15.2,6.8-15.2,15.2v346H1025.9z"/>
		<path class="st2" d="M1126.9,821.5H350.6l0,0c0-27.6,26-49.9,58.2-49.9h659.9C1100.8,771.6,1126.9,794,1126.9,821.5L1126.9,821.5z
			"/>
		<polygon class="st4" points="392.7,461.9 390.5,779.2 1025.9,779.2 1025.9,461.9 		"/>
		<path class="st12" d="M1100.7,821.5H324.4l0,0c0-27.6,26-49.9,58.2-49.9h659.9C1074.6,771.6,1100.7,794,1100.7,821.5L1100.7,821.5
			z"/>
		<path class="st9" d="M593.3,771.3v14.1c0,7.6,6.2,13.8,13.8,13.8h216.8c7.6,0,13.8-6.2,13.8-13.8v-14.1H593.3z"/>
	</g>
	<g>
		<g>
			<rect x="393.6" y="461.9" class="st3" width="43.9" height="175.1"/>
			<rect x="948.1" y="461.9" class="st3" width="74.6" height="61.4"/>
			<rect x="948.1" y="523.3" class="st3" width="74.6" height="85.7"/>
			<rect x="948.1" y="609" class="st3" width="74.6" height="118.5"/>
		</g>
	</g>
</g>
<g id="Layer_6">
	<g>
		<g>
			<g>
				<path d="M863.9,695.1H858c0-80.2-65.3-145.5-145.5-145.5c-80.2,0-145.5,65.3-145.5,145.5h-5.9c0-83.5,67.9-151.4,151.4-151.4
					C796,543.7,863.9,611.6,863.9,695.1z"/>
			</g>
		</g>
		<g>
			<g>
				<rect x="545" y="676.1" class="st3" width="38.2" height="38.2"/>
			</g>
		</g>
		<g>
			<g>
				<rect x="841.9" y="676.1" class="st3" width="38.2" height="38.2"/>
			</g>
		</g>
		<g>
			<g>
				<rect x="813.3" y="527.6" class="st3" width="38.2" height="38.1"/>
			</g>
		</g>
		<g>
			<g>
				<rect x="573.6" y="527.6" class="st3" width="38.2" height="38.1"/>
			</g>
		</g>
		<g>
			<g>
				<path d="M733.6,567.7h-42.1v-42.1h42.1V567.7z M695.4,563.8h34.2v-34.2h-34.2V563.8z"/>
			</g>
		</g>
		<g>
			<g>
				<rect x="592.7" y="543.7" width="239.6" height="5.9"/>
			</g>
		</g>
	</g>
	<g>
		<g>
			<path class="st4" d="M712.5,544.7l-56.7,110.7c-5.1,9.9-1.1,22,9,26.9c11.9,5.9,24.9,16.6,24.9,35.4h22.9h22.9
				c0-18.7,13-29.5,24.9-35.4c10-5,14-17.1,9-26.9L712.5,544.7z"/>
		</g>
		<g>
			<path class="st9" d="M758.5,725.6c0-4.3-3.6-7.9-8-7.9h-15h-23h-23h-15c-4.4,0-8,3.5-8,7.9l0,0c0,4.3,3.6,7.9,8,7.9h15v37.2h23
				h23v-37.2h15C754.9,733.4,758.5,729.9,758.5,725.6L758.5,725.6z"/>
		</g>
		<g>
			<polygon points="711,547.5 710.4,623.2 715.5,623.2 713.5,546.5 			"/>
		</g>
		<g>
			<ellipse cx="713" cy="624.7" rx="8.7" ry="8.6"/>
		</g>
	</g>
</g>
<g id="Layer_8">
	<g>
		<rect x="1161" y="614.8" class="st5" width="163.3" height="21.8"/>
		<rect x="1161" y="659.9" class="st9" width="163.3" height="23.3"/>
		<rect x="1161" y="708.1" class="st6" width="163.3" height="21.8"/>
	</g>
</g>
<g id="Layer_10">
	<g>
		<rect x="402.3" y="476" class="st1" width="11.1" height="11.1"/>
		<rect x="402.3" y="500.1" class="st1" width="11.1" height="11.1"/>
		<rect x="418.5" y="476" class="st1" width="11.1" height="11.1"/>
		<rect x="418.5" y="500.1" class="st1" width="11.1" height="11.1"/>
		<rect x="401.9" y="525.4" class="st1" width="11.1" height="11.1"/>
		<rect x="418.2" y="525.4" class="st1" width="11.1" height="11.1"/>
		<rect x="401.6" y="550.7" class="st1" width="11.1" height="11.1"/>
		<rect x="417.8" y="550.7" class="st1" width="11.1" height="11.1"/>
		<rect x="401.3" y="576" class="st1" width="11.1" height="11.1"/>
		<rect x="417.5" y="576" class="st1" width="11.1" height="11.1"/>
		<rect x="400.9" y="601.3" class="st1" width="11.1" height="11.1"/>
		<rect x="417.2" y="601.3" class="st1" width="11.1" height="11.1"/>
	</g>
	<rect x="60.4" y="821.5" class="st3" width="1278.9" height="60.2"/>
	<rect x="115.7" y="881.8" class="st3" width="58.4" height="98.2"/>
	<rect x="1221.6" y="881.8" class="st3" width="58.4" height="98.2"/>
</g>
<g id="Layer_9">
	<g>
		<g>
			<g>
				<g>
					<g>
						<g>
							<g>
								<g>
									<g>
										<path d="M1365.8,587.8l-7.9-7.9c-0.8-0.8-0.8-1.8,0-2.6c0.8-0.8,1.9-0.8,2.6,0l7.9,7.9c0.8,0.8,0.8,1.8,0,2.6
											C1367.6,588.6,1366.6,588.6,1365.8,587.8z"/>
									</g>
								</g>
							</g>
						</g>
					</g>
				</g>
				<g>
					<g>
						<g>
							<g>
								<g>
									<g>
										<path d="M1357.9,587.8c-0.8-0.8-0.8-1.8,0-2.6l7.9-7.9c0.8-0.8,1.9-0.8,2.6,0c0.8,0.8,0.8,1.8,0,2.6l-7.9,7.9
											C1359.7,588.6,1358.7,588.6,1357.9,587.8z"/>
									</g>
								</g>
							</g>
						</g>
					</g>
				</g>
			</g>
		</g>
		<g>
			<g>
				<g>
					<g>
						<g>
							<g>
								<g>
									<g>
										<path d="M1276.6,72.1l-7.9-7.9c-0.8-0.8-0.8-1.8,0-2.6c0.8-0.8,1.9-0.8,2.6,0l7.9,7.9c0.8,0.8,0.8,1.8,0,2.6
											C1278.5,72.9,1277.4,72.9,1276.6,72.1z"/>
									</g>
								</g>
							</g>
						</g>
					</g>
				</g>
				<g>
					<g>
						<g>
							<g>
								<g>
									<g>
										<path d="M1268.7,72.1c-0.8-0.8-0.8-1.8,0-2.6l7.9-7.9c0.8-0.8,1.9-0.8,2.6,0c0.8,0.8,0.8,1.8,0,2.6l-7.9,7.9
											C1270.6,72.9,1269.5,72.9,1268.7,72.1z"/>
									</g>
								</g>
							</g>
						</g>
					</g>
				</g>
			</g>
		</g>
		<g>
			<g>
				<g>
					<g>
						<g>
							<g>
								<g>
									<g>
										<path d="M902.9,940.3l10,4.9c0.9,0.4,1.3,1.4,1,2.3c-0.5,1.2-1.5,1.6-2.6,1.1l-10.1-4.9c-1-0.5-1.3-1.5-0.9-2.5
											C900.8,940.2,901.8,939.8,902.9,940.3z"/>
									</g>
								</g>
							</g>
						</g>
					</g>
				</g>
				<g>
					<g>
						<g>
							<g>
								<g>
									<g>
										<path d="M910.3,937.8c1,0.5,1.4,1.5,0.9,2.5l-4.9,10c-0.4,0.9-1.4,1.3-2.3,1c-1.2-0.4-1.6-1.5-1.1-2.6l4.9-10.1
											C908.3,937.6,909.3,937.3,910.3,937.8z"/>
									</g>
								</g>
							</g>
						</g>
					</g>
				</g>
			</g>
		</g>
		<g>
			<g>
				<line class="st1" x1="451.2" y1="53.7" x2="381.4" y2="53.7"/>
			</g>
			<g>
				<rect x="381.4" y="51.9" width="69.8" height="3.7"/>
			</g>
		</g>
		<g>
			<g>
				<line class="st1" x1="433.3" y1="63.1" x2="412.4" y2="63.1"/>
			</g>
			<g>
				<rect x="412.4" y="61.3" width="21" height="3.7"/>
			</g>
		</g>
		<g>
			<g>
				<line class="st1" x1="1266.4" y1="780.6" x2="1196.6" y2="780.6"/>
			</g>
			<g>
				<rect x="1196.6" y="778.7" width="69.8" height="3.7"/>
			</g>
		</g>
		<g>
			<g>
				<line class="st1" x1="1248.5" y1="789.9" x2="1227.6" y2="789.9"/>
			</g>
			<g>
				<rect x="1227.6" y="788.1" width="21" height="3.7"/>
			</g>
		</g>
		<g>
			<g>
				<circle class="st1" cx="516.7" cy="38" r="9.4"/>
			</g>
			<g>
				<path d="M516.7,49.3c-6.2,0-11.2-5-11.2-11.2c0-6.2,5-11.2,11.2-11.2c6.2,0,11.2,5,11.2,11.2C527.9,44.2,522.9,49.3,516.7,49.3z
					 M516.7,30.5c-4.2,0-7.5,3.4-7.5,7.5c0,4.2,3.4,7.5,7.5,7.5c4.2,0,7.5-3.4,7.5-7.5C524.2,33.9,520.9,30.5,516.7,30.5z"/>
			</g>
		</g>
		<g>
			<g>
				<path class="st1" d="M974.3,926.1c-3.1-5.7,0.3-12.7,6.7-13.8c3.9-0.7,7.9,1.3,9.7,4.8c3.1,5.7-0.3,12.7-6.7,13.8
					C980.2,931.5,976.2,929.6,974.3,926.1z"/>
			</g>
			<g>
				<path d="M977.2,911.8c6.8-3.7,15.2,0.4,16.5,8.1c0.8,4.6-1.5,9.4-5.7,11.6c-6.8,3.7-15.2-0.4-16.5-8.1
					C970.7,918.8,973,914,977.2,911.8z M983.6,929.1c5.4-0.8,8.2-6.6,5.5-11.3c-1.5-2.6-4.5-4.1-7.5-3.7c-5.3,0.8-8.2,6.6-5.5,11.3
					C977.6,928,980.6,929.5,983.6,929.1z"/>
			</g>
		</g>
		<g>
			<g>
				<circle class="st1" cx="1141.9" cy="530.8" r="9.4"/>
			</g>
			<g>
				<path d="M1141.9,542.1c-6.2,0-11.2-5-11.2-11.2c0-6.2,5-11.2,11.2-11.2s11.2,5,11.2,11.2C1153.2,537,1148.1,542.1,1141.9,542.1z
					 M1141.9,523.3c-4.2,0-7.5,3.4-7.5,7.5c0,4.2,3.4,7.5,7.5,7.5c4.2,0,7.5-3.4,7.5-7.5C1149.5,526.7,1146.1,523.3,1141.9,523.3z"
					/>
			</g>
		</g>
		<g>
			<g>
				<line class="st1" x1="902.3" y1="11.2" x2="832.6" y2="11.2"/>
			</g>
			<g>
				<rect x="832.6" y="9.3" width="69.8" height="3.7"/>
			</g>
		</g>
		<g>
			<g>
				<line class="st1" x1="884.5" y1="20.5" x2="863.5" y2="20.5"/>
			</g>
			<g>
				<rect x="863.5" y="18.7" width="21" height="3.7"/>
			</g>
		</g>
		<g>
			<g>
				<line class="st1" x1="1334.6" y1="514.9" x2="1313.6" y2="514.9"/>
			</g>
			<g>
				<rect x="1313.6" y="513" width="21" height="3.7"/>
			</g>
		</g>
		<g>
			<g>
				<line class="st1" x1="1364.8" y1="514.9" x2="1343.9" y2="514.9"/>
			</g>
			<g>
				<rect x="1343.9" y="513" width="21" height="3.7"/>
			</g>
		</g>
		<g>
			<g>
				<line class="st1" x1="1355.4" y1="523.8" x2="1324.1" y2="523.8"/>
			</g>
			<g>
				<rect x="1324.1" y="522" width="31.3" height="3.7"/>
			</g>
		</g>
		<g>
			<g>
				<line class="st1" x1="1365.8" y1="24.9" x2="1328.5" y2="24.9"/>
			</g>
			<g>
				<rect x="1328.5" y="23.1" width="37.3" height="3.7"/>
			</g>
		</g>
		<g>
			<g>
				<line class="st1" x1="1349.1" y1="33.8" x2="1293.3" y2="33.8"/>
			</g>
			<g>
				<rect x="1293.3" y="32" width="55.7" height="3.7"/>
			</g>
		</g>
		<g>
			<g>
				<g>
					<g>
						<g>
							<g>
								<g>
									<g>
										<path d="M457.7,17.5l-7.9-7.9c-0.8-0.8-0.8-1.8,0-2.6c0.8-0.8,1.9-0.8,2.6,0l7.9,7.9c0.8,0.8,0.8,1.8,0,2.6
											C459.6,18.3,458.5,18.3,457.7,17.5z"/>
									</g>
								</g>
							</g>
						</g>
					</g>
				</g>
				<g>
					<g>
						<g>
							<g>
								<g>
									<g>
										<path d="M449.8,17.5c-0.8-0.8-0.8-1.8,0-2.6l7.9-7.9c0.8-0.8,1.9-0.8,2.6,0c0.8,0.8,0.8,1.8,0,2.6l-7.9,7.9
											C451.7,18.3,450.6,18.3,449.8,17.5z"/>
									</g>
								</g>
							</g>
						</g>
					</g>
				</g>
			</g>
		</g>
		<g>
			<g>
				<line class="st1" x1="90.3" y1="788.7" x2="20.6" y2="788.7"/>
			</g>
			<g>
				<rect x="20.6" y="786.9" width="69.8" height="3.7"/>
			</g>
		</g>
		<g>
			<g>
				<line class="st1" x1="72.5" y1="798.1" x2="51.5" y2="798.1"/>
			</g>
			<g>
				<rect x="51.5" y="796.3" width="21" height="3.7"/>
			</g>
		</g>
		<g>
			<g>
				<g>
					<g>
						<g>
							<g>
								<g>
									<g>
										<path d="M96.9,752.5l-7.9-7.9c-0.8-0.8-0.8-1.8,0-2.6c0.8-0.8,1.9-0.8,2.6,0l7.9,7.9c0.8,0.8,0.8,1.8,0,2.6
											C98.8,753.3,97.7,753.3,96.9,752.5z"/>
									</g>
								</g>
							</g>
						</g>
					</g>
				</g>
				<g>
					<g>
						<g>
							<g>
								<g>
									<g>
										<path d="M89,752.5c-0.8-0.8-0.8-1.8,0-2.6l7.9-7.9c0.8-0.8,1.9-0.8,2.6,0c0.8,0.8,0.8,1.8,0,2.6l-7.9,7.9
											C90.8,753.3,89.8,753.3,89,752.5z"/>
									</g>
								</g>
							</g>
						</g>
					</g>
				</g>
			</g>
		</g>
		<g>
			<g>
				<g>
					<g>
						<g>
							<g>
								<g>
									<g>
										<path d="M876.3,78.1l8-7.9c0.8-0.8,1.9-0.8,2.6,0c0.8,0.8,0.8,1.9,0,2.6l-8,7.9c-0.8,0.8-1.9,0.8-2.6,0
											C875.5,79.9,875.5,78.9,876.3,78.1z"/>
									</g>
								</g>
							</g>
						</g>
					</g>
				</g>
				<g>
					<g>
						<g>
							<g>
								<g>
									<g>
										<path d="M876.3,70.2c0.8-0.8,1.8-0.8,2.6,0l7.9,8c0.5,0.6,0.7,1.4,0.3,2.1c-0.8,1.2-2.1,1.4-3,0.5l-7.9-8
											C875.5,72,875.5,71,876.3,70.2z"/>
									</g>
								</g>
							</g>
						</g>
					</g>
				</g>
			</g>
		</g>
		<g>
			<g>
				<g>
					<g>
						<g>
							<g>
								<g>
									<g>
										<path d="M777.4,55.1l8-7.9c0.8-0.8,1.9-0.8,2.6,0c0.8,0.8,0.8,1.9,0,2.6l-8,7.9c-0.6,0.6-1.6,0.7-2.3,0.2
											C776.6,57.2,776.5,56,777.4,55.1z"/>
									</g>
								</g>
							</g>
						</g>
					</g>
				</g>
				<g>
					<g>
						<g>
							<g>
								<g>
									<g>
										<path d="M777.4,47.2c0.8-0.8,1.8-0.8,2.6,0l7.9,8c0.5,0.6,0.7,1.4,0.3,2.1c-0.8,1.3-2.1,1.4-3,0.5l-7.9-8
											C776.6,49,776.6,48,777.4,47.2z"/>
									</g>
								</g>
							</g>
						</g>
					</g>
				</g>
			</g>
		</g>
		<g>
			<g>
				<g>
					<g>
						<g>
							<g>
								<g>
									<g>
										<path d="M1188.4,543l-7-7c-0.7-0.7-0.7-1.6,0-2.3c0.7-0.7,1.6-0.7,2.3,0l7,7c0.7,0.7,0.7,1.6,0,2.3
											C1190,543.7,1189.1,543.7,1188.4,543z"/>
									</g>
								</g>
							</g>
						</g>
					</g>
				</g>
				<g>
					<g>
						<g>
							<g>
								<g>
									<g>
										<path d="M1181.5,543c-0.7-0.7-0.7-1.6,0-2.3l7-7c0.7-0.7,1.6-0.7,2.3,0c0.7,0.7,0.7,1.6,0,2.3l-7,7
											C1183.1,543.7,1182.1,543.7,1181.5,543z"/>
									</g>
								</g>
							</g>
						</g>
					</g>
				</g>
			</g>
		</g>
		<g>
			<g>
				<circle class="st1" cx="1129.1" cy="69.3" r="9.4"/>
			</g>
			<g>
				<path d="M1129.1,80.5c-6.2,0-11.2-5-11.2-11.2c0-6.2,5-11.2,11.2-11.2s11.2,5,11.2,11.2C1140.3,75.4,1135.3,80.5,1129.1,80.5z
					 M1129.1,61.7c-4.2,0-7.5,3.4-7.5,7.5c0,4.2,3.4,7.5,7.5,7.5c4.2,0,7.5-3.4,7.5-7.5C1136.6,65.1,1133.3,61.7,1129.1,61.7z"/>
			</g>
		</g>
		<g>
			<g>
				<g>
					<g>
						<g>
							<g>
								<g>
									<g>
										<path d="M1175.6,81.4l-7-7c-0.7-0.7-0.7-1.6,0-2.3c0.7-0.7,1.6-0.7,2.3,0l7,7c0.7,0.7,0.7,1.6,0,2.3
											C1177.2,82.1,1176.3,82.1,1175.6,81.4z"/>
									</g>
								</g>
							</g>
						</g>
					</g>
				</g>
				<g>
					<g>
						<g>
							<g>
								<g>
									<g>
										<path d="M1168.6,81.4c-0.7-0.7-0.7-1.6,0-2.3l7-7c0.7-0.7,1.6-0.7,2.3,0c0.7,0.7,0.7,1.6,0,2.3l-7,7
											C1170.2,82.1,1169.3,82.1,1168.6,81.4z"/>
									</g>
								</g>
							</g>
						</g>
					</g>
				</g>
			</g>
		</g>
		<g>
			<g>
				<circle class="st1" cx="396.6" cy="914.6" r="9.4"/>
			</g>
			<g>
				<path d="M396.6,925.8c-6.2,0-11.2-5-11.2-11.2c0-6.2,5-11.2,11.2-11.2c6.2,0,11.2,5,11.2,11.2
					C407.8,920.7,402.7,925.8,396.6,925.8z M396.6,907c-4.2,0-7.5,3.4-7.5,7.5c0,4.2,3.4,7.5,7.5,7.5c4.2,0,7.5-3.4,7.5-7.5
					C404.1,910.4,400.7,907,396.6,907z"/>
			</g>
		</g>
		<g>
			<g>
				<g>
					<g>
						<g>
							<g>
								<g>
									<g>
										<path d="M443,926.7l-7-7c-0.7-0.7-0.7-1.6,0-2.3c0.7-0.7,1.6-0.7,2.3,0l7,7c0.7,0.7,0.7,1.6,0,2.3
											C444.7,927.4,443.7,927.4,443,926.7z"/>
									</g>
								</g>
							</g>
						</g>
					</g>
				</g>
				<g>
					<g>
						<g>
							<g>
								<g>
									<g>
										<path d="M436.1,926.7c-0.7-0.7-0.7-1.6,0-2.3l7-7c0.7-0.7,1.6-0.7,2.3,0c0.7,0.7,0.7,1.6,0,2.3l-7,7
											C437.7,927.4,436.8,927.4,436.1,926.7z"/>
									</g>
								</g>
							</g>
						</g>
					</g>
				</g>
			</g>
		</g>
	</g>
</g>
</svg>
